<svg version="1.1" id="Layer_1" xmlns="http://www.w3.org/2000/svg" xmlns:xlink="http://www.w3.org/1999/xlink" x="0px" y="0px"
	 width="100%" viewBox="0 0 225 225" enable-background="new 0 0 225 225" xml:space="preserve">
<path fill="#000000" opacity="1.000000" stroke="none" 
	d="
M125.000000,226.000000 
	C83.333336,226.000000 42.166672,226.000000 1.000005,226.000000 
	C1.000004,151.000000 1.000004,76.000015 1.000002,1.000016 
	C75.999992,1.000010 150.999985,1.000010 225.999969,1.000005 
	C225.999985,75.999985 225.999985,150.999969 226.000000,225.999969 
	C192.500000,226.000000 159.000000,226.000000 125.000000,226.000000 
M149.407440,214.968323 
	C172.446777,206.806274 190.264694,191.718414 203.815308,171.894699 
	C222.849030,144.049530 225.002441,113.429565 216.133926,81.575661 
	C210.523849,61.425461 198.515228,45.345879 183.095154,31.762312 
	C173.466797,23.280672 162.582352,16.401525 150.333817,12.331430 
	C133.961685,6.891085 117.245514,4.886644 99.840408,6.860811 
	C87.054428,8.311055 75.162689,11.980794 64.015381,17.759878 
	C49.373928,25.350424 37.479362,36.534927 27.182915,49.381344 
	C20.166132,58.135872 14.723491,67.857941 11.382332,78.507957 
	C6.411797,94.351639 4.890214,110.537674 6.902010,127.209824 
	C8.230503,138.219299 10.970359,148.643524 15.444615,158.647339 
	C22.030640,173.372787 32.566681,185.201996 44.481544,195.692245 
	C53.560009,203.685242 63.801674,210.132828 75.424797,214.075897 
	C91.284904,219.456329 107.399681,222.776688 124.208084,219.872757 
	C132.374298,218.461914 140.475479,216.674820 149.407440,214.968323 
z"/>
<path fill="#828181" opacity="1.000000" stroke="none" 
	d="
M149.006775,215.013184 
	C140.475479,216.674820 132.374298,218.461914 124.208084,219.872757 
	C107.399681,222.776688 91.284904,219.456329 75.424797,214.075897 
	C63.801674,210.132828 53.560009,203.685242 44.481544,195.692245 
	C32.566681,185.201996 22.030640,173.372787 15.444615,158.647339 
	C10.970359,148.643524 8.230503,138.219299 6.902010,127.209824 
	C4.890214,110.537674 6.411797,94.351639 11.382332,78.507957 
	C14.723491,67.857941 20.166132,58.135872 27.182915,49.381344 
	C37.479362,36.534927 49.373928,25.350424 64.015381,17.759878 
	C75.162689,11.980794 87.054428,8.311055 99.840408,6.860811 
	C117.245514,4.886644 133.961685,6.891085 150.333817,12.331430 
	C162.582352,16.401525 173.466797,23.280672 183.095154,31.762312 
	C198.515228,45.345879 210.523849,61.425461 216.133926,81.575661 
	C225.002441,113.429565 222.849030,144.049530 203.815308,171.894699 
	C190.264694,191.718414 172.446777,206.806274 149.006775,215.013184 
M50.921722,116.834076 
	C69.994476,116.834076 89.067230,116.834076 108.323387,116.834076 
	C108.428261,114.678268 108.672768,113.348610 108.521523,112.065598 
	C108.073982,108.269035 107.804024,104.406815 106.875351,100.718658 
	C98.431366,67.183952 66.321587,66.431000 50.156490,79.272408 
	C37.862885,89.038315 33.857807,102.471443 35.140800,117.569443 
	C38.184216,153.383789 65.622253,159.361832 86.493431,153.048065 
	C98.136406,149.525940 106.203476,139.654495 106.579025,129.406601 
	C102.609535,129.406601 98.646713,129.406601 95.783829,129.406601 
	C92.764732,133.179459 90.756592,137.056320 87.601387,139.366608 
	C79.293175,145.450027 69.971062,145.156509 61.107315,140.803253 
	C51.867142,136.265121 48.610550,127.954567 49.381287,117.664207 
	C49.589260,117.447563 49.794865,117.228699 50.921722,116.834076 
M151.485153,121.324043 
	C158.418716,131.492508 165.308044,141.691772 172.338562,151.792755 
	C173.279892,153.145187 174.869553,154.826157 176.271286,154.937195 
	C181.150772,155.323669 186.079681,155.086594 192.014664,155.086594 
	C180.941940,139.611832 170.520264,125.046936 159.935532,110.254166 
	C169.299805,97.710922 178.594147,85.261360 188.497772,71.995674 
	C184.237457,71.995674 181.089020,72.264168 178.005676,71.930779 
	C173.716629,71.467018 171.035797,72.958557 168.615662,76.649460 
	C163.257477,84.821136 157.342041,92.627426 151.342941,101.017601 
	C145.354691,92.260780 139.680344,83.861984 133.866806,75.560661 
	C132.893524,74.170876 131.388977,72.313789 130.005585,72.201279 
	C125.010162,71.794975 119.961639,72.041451 113.976517,72.041451 
	C124.068436,85.838890 133.450180,98.665398 142.754242,111.385704 
	C132.380188,125.993813 122.326988,140.150101 111.708229,155.102783 
	C116.273590,155.102783 119.621895,154.810379 122.896332,155.177216 
	C126.938339,155.630066 129.185516,153.935104 131.320358,150.640579 
	C137.653549,140.867126 144.350266,131.329254 151.485153,121.324043 
z"/>
<path fill="#FCFCFC" opacity="1.000000" stroke="none" 
	d="
M49.064922,117.984840 
	C48.610550,127.954567 51.867142,136.265121 61.107315,140.803253 
	C69.971062,145.156509 79.293175,145.450027 87.601387,139.366608 
	C90.756592,137.056320 92.764732,133.179459 95.783829,129.406601 
	C98.646713,129.406601 102.609535,129.406601 106.579025,129.406601 
	C106.203476,139.654495 98.136406,149.525940 86.493431,153.048065 
	C65.622253,159.361832 38.184216,153.383789 35.140800,117.569443 
	C33.857807,102.471443 37.862885,89.038315 50.156490,79.272408 
	C66.321587,66.431000 98.431366,67.183952 106.875351,100.718658 
	C107.804024,104.406815 108.073982,108.269035 108.521523,112.065598 
	C108.672768,113.348610 108.428261,114.678268 108.323387,116.834076 
	C89.067230,116.834076 69.994476,116.834076 50.183807,116.931572 
	C49.318905,117.347664 49.191914,117.666252 49.064922,117.984840 
M60.525360,105.998871 
	C69.996025,105.999306 79.466759,106.021812 88.937325,105.991318 
	C94.057030,105.974831 94.865089,104.910309 93.576859,100.123665 
	C89.714378,85.771942 72.771011,78.853859 59.968594,86.401207 
	C53.134075,90.430328 48.628365,98.827377 49.664463,105.998932 
	C52.920826,105.998932 56.228344,105.998932 60.525360,105.998871 
z"/>
<path fill="#FCFCFC" opacity="1.000000" stroke="none" 
	d="
M151.195007,121.511658 
	C144.350266,131.329254 137.653549,140.867126 131.320358,150.640579 
	C129.185516,153.935104 126.938339,155.630066 122.896332,155.177216 
	C119.621895,154.810379 116.273590,155.102783 111.708229,155.102783 
	C122.326988,140.150101 132.380188,125.993813 142.754242,111.385704 
	C133.450180,98.665398 124.068436,85.838890 113.976517,72.041451 
	C119.961639,72.041451 125.010162,71.794975 130.005585,72.201279 
	C131.388977,72.313789 132.893524,74.170876 133.866806,75.560661 
	C139.680344,83.861984 145.354691,92.260780 151.342941,101.017601 
	C157.342041,92.627426 163.257477,84.821136 168.615662,76.649460 
	C171.035797,72.958557 173.716629,71.467018 178.005676,71.930779 
	C181.089020,72.264168 184.237457,71.995674 188.497772,71.995674 
	C178.594147,85.261360 169.299805,97.710922 159.935532,110.254166 
	C170.520264,125.046936 180.941940,139.611832 192.014664,155.086594 
	C186.079681,155.086594 181.150772,155.323669 176.271286,154.937195 
	C174.869553,154.826157 173.279892,153.145187 172.338562,151.792755 
	C165.308044,141.691772 158.418716,131.492508 151.195007,121.511658 
z"/>
<path fill="#777777" opacity="1.000000" stroke="none" 
	d="
M49.223106,117.824524 
	C49.191914,117.666252 49.318905,117.347664 49.722000,117.018341 
	C49.794865,117.228699 49.589260,117.447563 49.223106,117.824524 
z"/>
<path fill="#828282" opacity="1.000000" stroke="none" 
	d="
M60.030609,105.998901 
	C56.228344,105.998932 52.920826,105.998932 49.664463,105.998932 
	C48.628365,98.827377 53.134075,90.430328 59.968594,86.401207 
	C72.771011,78.853859 89.714378,85.771942 93.576859,100.123665 
	C94.865089,104.910309 94.057030,105.974831 88.937325,105.991318 
	C79.466759,106.021812 69.996025,105.999306 60.030609,105.998901 
z"/>
</svg>