<?xml version="1.0" standalone="no"?>
<!DOCTYPE svg PUBLIC "-//W3C//DTD SVG 20010904//EN"
 "http://www.w3.org/TR/2001/REC-SVG-20010904/DTD/svg10.dtd">
<svg version="1.0" xmlns="http://www.w3.org/2000/svg"
 width="289.000000pt" height="273.000000pt" viewBox="0 0 289.000000 273.000000"
 preserveAspectRatio="xMidYMid meet">
<metadata>
Created by potrace 1.16, written by Peter Selinger 2001-2019
</metadata>
<g transform="translate(0.000000,273.000000) scale(0.100000,-0.100000)"
fill="#000000" stroke="none">
<path d="M935 2721 c-33 -4 -55 -8 -50 -9 21 -4 -22 -22 -53 -22 -20 0 -31 -4
-27 -10 4 -6 -8 -10 -28 -10 -22 0 -37 -6 -41 -15 -3 -8 -17 -15 -31 -15 -15
0 -24 -4 -20 -10 3 -5 -3 -10 -13 -10 -11 0 -25 -7 -32 -15 -7 -8 -20 -15 -30
-15 -10 0 -20 -7 -24 -15 -3 -8 -12 -15 -21 -15 -8 0 -15 -4 -15 -10 0 -5 -4
-10 -9 -10 -6 0 -24 -13 -42 -30 -18 -16 -36 -27 -41 -24 -4 3 -8 -2 -8 -10 0
-9 -5 -16 -11 -16 -14 0 -39 -25 -39 -39 0 -6 -7 -11 -15 -11 -8 0 -15 -5 -15
-11 0 -14 -25 -39 -39 -39 -6 0 -11 -4 -11 -10 0 -10 -26 -44 -62 -82 -10 -10
-18 -22 -18 -28 0 -5 -3 -10 -8 -10 -7 0 -25 -30 -38 -62 -3 -10 -10 -18 -15
-18 -5 0 -9 -7 -9 -15 0 -9 -7 -18 -15 -21 -8 -4 -15 -16 -15 -29 0 -13 -7
-26 -16 -29 -8 -3 -13 -10 -10 -15 4 -5 0 -16 -8 -24 -8 -8 -16 -27 -18 -43
-2 -17 -8 -28 -15 -27 -9 2 -13 -10 -13 -37 0 -22 -4 -40 -10 -40 -5 0 -10
-17 -10 -37 0 -40 -18 -83 -21 -53 -6 52 -17 -194 -18 -401 -1 -292 7 -459 23
-456 6 1 12 -18 14 -45 2 -27 7 -48 13 -48 5 0 9 -18 9 -40 0 -27 4 -39 13
-38 7 2 13 -11 15 -35 2 -20 7 -35 13 -32 8 5 14 -23 10 -47 0 -5 6 -8 14 -8
10 0 15 -10 15 -31 0 -17 4 -28 10 -24 5 3 12 -6 16 -20 3 -14 10 -25 15 -25
5 0 9 -9 9 -19 0 -10 7 -21 15 -25 8 -3 15 -12 15 -21 0 -8 5 -15 10 -15 6 0
10 -6 10 -13 0 -7 8 -20 18 -28 28 -26 62 -68 62 -79 0 -6 5 -10 11 -10 14 0
39 -25 39 -39 0 -6 5 -11 11 -11 7 0 22 -11 35 -25 13 -14 27 -25 32 -25 6 0
12 -7 16 -15 3 -8 12 -15 21 -15 8 0 15 -4 15 -10 0 -5 7 -10 15 -10 9 0 18
-7 21 -15 4 -8 15 -15 25 -15 10 0 19 -4 19 -10 0 -5 9 -10 20 -10 11 0 23 -7
26 -15 4 -8 17 -15 29 -15 13 0 27 -4 30 -10 3 -5 17 -10 30 -10 13 0 28 -6
32 -14 4 -8 26 -16 48 -18 22 -2 39 -8 38 -14 -3 -15 143 -24 393 -24 288 0
444 9 437 26 -4 11 8 14 52 14 31 0 54 4 51 9 -7 10 27 21 67 21 15 0 27 5 27
10 0 6 18 10 39 10 25 0 41 5 45 15 3 9 18 15 36 15 16 0 30 5 30 10 0 6 16
10 35 10 23 0 34 4 33 13 -2 7 10 13 30 15 18 2 30 8 27 13 -4 5 8 9 24 9 21
0 31 5 31 15 0 9 9 15 24 15 13 0 26 7 30 15 3 8 12 15 21 15 8 0 15 5 15 10
0 6 11 10 25 10 16 0 25 6 25 15 0 8 7 15 15 15 8 0 15 4 15 9 0 14 37 20 51
7 10 -8 10 -7 0 6 -11 15 -11 19 5 25 16 6 59 41 110 91 7 6 17 12 23 12 6 0
11 7 11 15 0 8 5 15 11 15 14 0 39 25 39 39 0 6 7 11 15 11 8 0 15 4 15 10 0
10 26 44 63 82 9 10 17 22 17 28 0 6 5 10 10 10 6 0 10 9 10 20 0 11 7 20 15
20 9 0 15 9 15 25 0 14 4 25 9 25 5 0 11 10 13 23 2 12 9 21 16 19 7 -1 12 9
12 23 0 14 4 33 9 43 6 9 12 30 16 45 3 15 9 26 14 23 12 -8 21 125 21 313 0
187 -9 333 -20 326 -9 -5 -20 29 -20 63 0 12 -4 22 -10 22 -5 0 -10 15 -10 34
0 21 -6 36 -15 40 -8 3 -15 17 -15 31 0 14 -4 25 -10 25 -5 0 -10 14 -10 30 0
20 -5 30 -15 30 -9 0 -15 9 -15 25 0 14 -4 25 -10 25 -5 0 -10 6 -10 14 0 7
-7 19 -15 26 -8 7 -15 19 -15 27 0 8 -6 21 -12 28 -28 31 -38 44 -38 50 0 4
-11 21 -25 39 -14 18 -25 38 -25 44 0 7 -7 12 -15 12 -8 0 -15 5 -15 10 0 9
-36 53 -87 106 -7 7 -13 17 -13 23 0 6 -7 11 -15 11 -8 0 -15 7 -15 15 0 8 -6
14 -12 12 -7 -1 -12 4 -11 11 2 6 -2 12 -7 12 -9 0 -47 30 -86 68 -7 6 -17 12
-23 12 -6 0 -11 7 -11 15 0 9 -6 12 -15 9 -8 -4 -17 1 -21 10 -3 9 -13 16 -20
16 -8 0 -17 7 -20 15 -4 8 -10 13 -14 10 -5 -3 -15 2 -23 10 -9 8 -23 15 -32
15 -8 0 -18 7 -21 15 -4 8 -17 15 -30 15 -13 0 -24 5 -24 10 0 6 -9 10 -19 10
-11 0 -26 7 -35 15 -8 8 -29 15 -46 15 -18 0 -33 6 -36 15 -4 10 -20 15 -45
15 -21 0 -39 5 -39 10 0 6 -20 10 -45 10 -31 0 -47 5 -51 15 -4 8 -17 15 -30
15 -13 0 -24 5 -24 10 0 6 -16 10 -35 10 -21 0 -37 6 -43 16 -8 15 -44 17
-313 19 -167 2 -331 0 -364 -4z m254 -95 c-2 -2 -13 -6 -24 -8 -11 -1 -26 -9
-33 -15 -7 -7 -24 -13 -37 -13 -12 0 -25 -7 -29 -15 -3 -8 -15 -15 -26 -15
-11 0 -20 -4 -20 -10 0 -5 -11 -10 -24 -10 -13 0 -26 -7 -30 -15 -3 -8 -12
-15 -21 -15 -8 0 -15 -4 -15 -10 0 -5 -11 -10 -25 -10 -16 0 -25 -6 -25 -15 0
-8 -9 -15 -20 -15 -11 0 -20 -4 -20 -10 0 -5 -7 -10 -15 -10 -9 0 -18 -7 -21
-15 -4 -8 -13 -15 -21 -15 -7 0 -24 -11 -37 -25 -13 -14 -26 -25 -30 -25 -3 0
-20 -12 -37 -27 -17 -16 -35 -27 -40 -25 -5 1 -9 -5 -9 -13 0 -8 -5 -15 -11
-15 -14 0 -219 -205 -219 -220 0 -5 -7 -10 -15 -10 -8 0 -15 -5 -15 -10 0 -6
-11 -23 -25 -38 -14 -15 -25 -32 -25 -39 0 -7 -7 -13 -15 -13 -8 0 -15 -7 -15
-15 0 -8 -4 -15 -10 -15 -5 0 -10 -9 -10 -19 0 -10 -7 -21 -15 -25 -8 -3 -15
-12 -15 -21 0 -8 -4 -15 -9 -15 -5 0 -11 -10 -13 -22 -2 -13 -9 -22 -16 -21
-7 2 -12 -9 -12 -27 0 -17 -4 -30 -9 -30 -5 0 -12 -11 -15 -25 -4 -14 -11 -25
-16 -25 -6 0 -10 -13 -10 -29 0 -16 -6 -33 -13 -39 -7 -6 -14 -23 -15 -37 -1
-15 -6 -34 -12 -43 -7 -13 -9 -7 -10 25 0 24 6 48 15 57 10 9 15 34 15 70 0
31 5 56 10 56 6 0 10 18 10 40 0 27 5 43 15 46 10 4 15 20 15 45 0 21 4 39 9
39 5 0 11 12 13 28 2 15 8 26 16 25 7 -2 12 8 12 26 0 16 6 31 15 35 8 3 15
15 15 26 0 12 5 18 10 15 5 -3 10 3 10 15 0 11 7 23 15 26 8 4 15 12 15 20 0
8 5 14 10 14 6 0 10 6 10 13 0 7 12 26 27 42 16 16 27 33 25 37 -1 5 5 8 13 8
8 0 15 7 15 15 0 8 7 15 16 15 8 0 13 4 10 8 -6 10 29 42 45 42 5 0 8 4 5 8
-6 9 29 42 44 42 6 0 10 4 10 8 0 5 14 18 31 31 26 19 33 21 47 9 15 -12 16
-11 3 4 -11 15 -11 19 5 25 11 4 25 13 33 21 7 7 20 11 27 8 8 -3 14 1 14 9 0
9 9 15 21 15 11 0 27 7 35 15 9 8 24 15 35 15 10 0 19 5 19 10 0 6 18 10 41
10 22 0 38 4 35 9 -8 12 18 21 60 21 19 0 34 5 34 10 0 6 33 10 79 10 44 0 83
5 86 10 3 6 18 10 32 10 15 0 24 -2 22 -4z m535 -101 c8 -8 27 -15 41 -15 19
0 26 -4 22 -14 -4 -9 3 -13 21 -13 14 0 28 -6 30 -12 2 -6 15 -11 28 -11 15 0
24 -6 24 -16 0 -8 3 -13 8 -11 4 3 25 -6 47 -19 22 -13 47 -27 55 -31 8 -3 17
-9 20 -13 3 -3 25 -21 50 -40 25 -19 47 -38 48 -42 2 -5 10 -8 18 -8 8 0 14
-7 14 -15 0 -8 4 -14 8 -13 10 4 92 -77 92 -91 0 -6 5 -11 11 -11 11 0 39 -25
39 -35 0 -3 11 -16 25 -29 14 -13 25 -28 25 -34 0 -5 7 -12 15 -16 8 -3 15
-15 15 -26 0 -12 5 -18 10 -15 6 3 10 -1 10 -10 0 -8 7 -18 15 -21 8 -4 15
-15 15 -25 0 -10 4 -19 9 -19 11 0 41 -56 41 -75 0 -7 7 -15 15 -19 8 -3 15
-15 15 -26 0 -11 5 -20 10 -20 6 0 10 -16 10 -35 0 -23 4 -34 13 -32 7 1 13
-11 15 -30 2 -18 7 -33 13 -33 5 0 9 -20 9 -45 0 -33 4 -45 15 -45 12 0 15
-14 15 -67 0 -41 4 -63 9 -55 15 24 21 -26 21 -179 0 -156 -7 -220 -21 -197
-5 8 -9 -12 -9 -50 0 -46 -4 -64 -15 -68 -9 -4 -15 -19 -15 -40 0 -19 -4 -34
-10 -34 -5 0 -10 -14 -10 -30 0 -18 -6 -33 -15 -36 -8 -4 -15 -17 -15 -30 0
-13 -4 -24 -10 -24 -5 0 -10 -8 -10 -19 0 -10 -7 -24 -15 -31 -8 -7 -15 -19
-15 -26 0 -8 -4 -14 -9 -14 -5 0 -11 -8 -15 -18 -12 -36 -31 -59 -145 -176
-36 -36 -71 -66 -78 -66 -7 0 -13 -4 -13 -10 0 -5 -6 -10 -14 -10 -8 0 -16 -7
-20 -15 -3 -8 -12 -15 -21 -15 -8 0 -15 -4 -15 -10 0 -5 -6 -10 -14 -10 -7 0
-19 -7 -26 -15 -7 -8 -20 -15 -30 -15 -10 0 -20 -7 -24 -15 -3 -8 -15 -15 -26
-15 -11 0 -20 -4 -20 -10 0 -5 -14 -10 -31 -10 -16 0 -28 -4 -25 -9 7 -10 -17
-21 -45 -21 -10 0 -19 -4 -19 -10 0 -5 -18 -10 -40 -10 -29 0 -40 -4 -40 -15
0 -11 -12 -15 -51 -15 -31 0 -48 -4 -44 -10 4 -6 -18 -10 -58 -10 -48 0 -66
-4 -71 -15 -8 -23 -546 -23 -546 0 0 12 -14 15 -66 15 -38 0 -63 4 -59 9 3 6
-16 11 -42 13 -32 2 -47 7 -45 16 1 8 -11 12 -39 12 -24 0 -38 4 -34 10 4 6
-6 10 -21 10 -22 0 -43 16 -91 67 -35 37 -63 73 -63 80 0 8 -5 11 -11 8 -6 -4
-13 2 -16 14 -3 12 -9 21 -14 21 -5 0 -9 6 -9 14 0 8 -7 16 -15 20 -8 3 -15
12 -15 20 0 8 -5 16 -10 18 -6 2 -12 13 -13 26 0 12 -7 22 -14 22 -7 0 -13 11
-13 25 0 14 -4 25 -10 25 -5 0 -10 14 -10 30 0 20 -5 30 -15 30 -10 0 -15 11
-15 35 0 19 -4 35 -10 35 -5 0 -13 18 -16 40 -4 22 -10 40 -15 40 -5 0 -9 22
-9 49 0 34 -4 51 -15 55 -11 4 -15 21 -15 66 0 33 -4 60 -10 60 -6 0 -10 72
-10 196 0 121 4 193 10 189 5 -3 10 22 12 62 2 48 7 67 16 66 8 -2 12 12 12
47 0 28 5 50 10 50 6 0 10 11 10 24 0 33 10 57 21 50 5 -3 9 8 9 24 0 16 7 35
15 42 8 7 15 21 15 31 0 11 5 19 10 19 6 0 10 12 10 26 0 19 4 25 15 20 11 -4
15 2 15 24 0 17 5 30 10 30 6 0 10 7 10 15 0 9 7 18 15 21 8 4 15 12 15 20 0
13 23 44 63 86 9 10 17 21 17 24 0 10 28 34 39 34 6 0 11 5 11 11 0 14 25 39
39 39 6 0 11 7 11 15 0 8 5 15 10 15 6 0 24 12 41 28 17 15 35 26 40 24 5 -1
9 5 9 13 0 8 6 15 14 15 7 0 19 7 26 15 7 9 19 14 27 11 7 -3 13 1 13 9 0 8 9
15 20 15 11 0 20 4 20 9 0 12 58 41 82 41 11 0 16 5 13 10 -4 6 7 13 24 16 17
4 31 10 31 15 0 5 16 9 35 9 23 0 34 4 32 13 -1 7 11 13 31 15 17 2 32 7 32
13 0 5 20 9 45 9 31 0 44 4 43 13 -2 8 17 14 57 18 33 3 56 7 50 8 -5 1 -1 6
10 11 11 5 82 9 157 9 109 1 140 -2 152 -14z m936 -736 c0 -11 7 -27 15 -35 8
-9 15 -24 15 -35 0 -10 5 -19 10 -19 6 0 10 -15 10 -34 0 -21 6 -36 15 -40 10
-3 15 -19 15 -46 0 -25 4 -39 10 -35 6 4 10 -15 10 -48 0 -40 4 -56 15 -61 13
-4 15 -37 15 -211 0 -176 -2 -205 -15 -205 -11 0 -15 -12 -15 -45 0 -25 -4
-45 -9 -45 -6 0 -11 -15 -13 -32 -2 -20 -8 -32 -15 -31 -8 2 -13 -8 -13 -27 0
-17 -4 -30 -10 -30 -5 0 -10 -9 -10 -20 0 -11 -7 -23 -15 -26 -8 -4 -15 -15
-15 -25 0 -10 -4 -19 -10 -19 -5 0 -10 -5 -10 -10 0 -14 -62 -99 -72 -100 -13
0 -9 17 7 30 8 7 15 19 15 26 0 8 4 14 9 14 5 0 12 11 15 25 4 14 11 25 16 25
6 0 10 11 10 25 0 14 5 25 10 25 6 0 10 11 10 25 0 14 7 28 15 31 10 4 15 20
15 45 0 28 4 39 15 39 11 0 15 12 15 49 0 27 5 51 11 53 16 5 16 481 0 486 -6
2 -11 27 -11 58 0 41 -4 54 -15 54 -11 0 -15 11 -15 36 0 19 -7 42 -15 50 -8
9 -15 24 -15 34 0 10 -4 22 -10 25 -5 3 -10 15 -10 26 0 10 5 19 10 19 6 0 10
-9 10 -21z m-2429 -223 c-6 -12 -12 -41 -13 -66 -2 -30 -7 -44 -15 -42 -10 1
-13 -53 -13 -245 0 -139 4 -242 9 -235 12 20 21 -9 21 -69 0 -27 5 -49 10 -49
6 0 10 -22 10 -50 0 -35 4 -49 13 -47 8 1 13 -13 15 -41 2 -23 7 -40 13 -37 5
4 9 -10 9 -29 0 -25 4 -36 15 -36 11 0 15 -11 15 -36 0 -19 4 -33 9 -29 5 3
17 -9 25 -26 19 -37 20 -49 6 -49 -5 0 -10 5 -10 10 0 6 -11 23 -25 38 -14 15
-25 35 -25 44 0 10 -6 17 -12 15 -7 -1 -14 8 -16 21 -2 12 -8 22 -13 22 -5 0
-9 6 -9 14 0 7 -7 19 -15 26 -8 7 -15 26 -15 42 0 16 -4 27 -9 24 -10 -7 -21
17 -21 45 0 10 -4 19 -10 19 -5 0 -10 25 -10 56 0 30 -4 53 -9 50 -17 -11 -21
28 -21 219 0 191 4 230 21 219 5 -3 9 22 9 55 0 33 5 63 10 66 6 3 10 21 10
40 0 18 7 40 15 49 8 8 15 25 15 39 0 13 3 27 8 31 12 13 15 -35 3 -58z"/>
<path d="M1354 1991 c8 -13 -19 -21 -70 -21 -24 0 -44 -4 -44 -10 0 -5 -16
-10 -35 -10 -22 0 -34 -4 -33 -12 4 -17 -40 -22 -58 -8 -7 7 -14 9 -14 5 0 -4
8 -14 18 -21 15 -12 13 -14 -13 -14 -3 0 -13 -8 -23 -17 -38 -37 -72 -63 -82
-63 -6 0 -10 -7 -10 -15 0 -8 -7 -15 -16 -15 -8 0 -13 -4 -10 -8 3 -5 -3 -15
-12 -24 -32 -28 -62 -68 -62 -82 0 -22 -19 -30 -26 -12 -3 9 -11 16 -17 16 -7
0 -7 -4 1 -12 17 -17 15 -58 -3 -64 -10 -4 -13 -13 -10 -24 3 -10 -1 -25 -9
-33 -8 -8 -16 -38 -18 -68 -2 -37 -7 -53 -15 -51 -10 1 -13 -21 -13 -88 0 -67
3 -89 13 -87 8 1 13 -15 15 -52 2 -30 10 -60 18 -68 8 -9 12 -23 9 -34 -4 -13
-2 -19 9 -19 11 0 16 -9 16 -31 0 -19 4 -28 11 -24 6 4 13 -2 16 -14 3 -12 9
-21 14 -21 5 0 9 -6 9 -13 0 -7 12 -26 28 -42 15 -16 26 -33 25 -37 -2 -5 4
-8 12 -8 8 0 15 -7 15 -15 0 -8 3 -14 8 -12 4 1 21 -10 37 -25 16 -16 44 -35
62 -43 18 -9 33 -20 33 -25 0 -6 12 -10 26 -10 20 0 25 -4 20 -16 -5 -13 -1
-15 19 -11 15 2 32 -1 39 -9 8 -7 38 -14 67 -16 37 -2 53 -7 52 -15 -2 -10 20
-13 87 -13 67 0 89 3 87 13 -1 8 15 13 52 15 30 2 60 10 68 18 9 9 24 12 39 8
18 -5 24 -3 22 7 -2 7 9 15 26 18 17 3 28 10 25 16 -2 5 4 11 14 13 17 3 47
25 83 59 7 7 17 13 23 13 6 0 11 7 11 15 0 8 7 15 15 15 8 0 15 4 15 10 0 9
25 43 60 79 8 9 15 22 15 29 0 6 4 11 10 10 5 -2 12 11 15 27 4 17 11 29 18
28 8 -2 12 10 12 32 0 19 5 35 10 35 6 0 10 20 10 44 0 51 8 78 21 70 5 -3 9
35 9 86 0 51 -4 89 -9 86 -13 -8 -21 19 -21 70 0 24 -4 44 -10 44 -5 0 -10 16
-10 35 0 22 -4 34 -12 33 -17 -4 -23 43 -7 53 8 4 10 11 6 15 -4 4 -14 -1 -22
-12 -13 -17 -15 -15 -15 11 0 3 -8 13 -17 23 -37 38 -63 72 -63 82 0 6 -7 10
-15 10 -8 0 -15 7 -15 15 0 8 -4 15 -10 15 -10 0 -44 26 -82 63 -10 9 -20 17
-23 17 -3 0 -10 0 -16 0 -5 0 -8 4 -4 9 3 5 -7 11 -22 13 -16 2 -27 8 -26 16
2 8 -9 12 -32 12 -19 0 -35 5 -35 10 0 6 -20 10 -44 10 -51 0 -78 8 -70 21 3
5 -35 9 -86 9 -51 0 -89 -4 -86 -9z m230 -167 c4 -10 13 -13 25 -9 11 3 25 -1
34 -10 9 -8 24 -15 35 -15 11 0 23 -7 26 -16 3 -8 10 -13 15 -9 13 7 153 -133
146 -146 -4 -5 1 -12 9 -15 9 -3 16 -15 16 -26 0 -11 7 -26 15 -34 8 -9 15
-26 15 -40 0 -13 5 -24 10 -24 6 0 10 -53 10 -140 0 -87 -4 -140 -10 -140 -5
0 -10 -11 -10 -24 0 -14 -7 -31 -15 -40 -8 -8 -15 -23 -15 -34 0 -11 -7 -23
-16 -26 -8 -3 -13 -10 -9 -15 7 -12 -121 -141 -140 -141 -7 0 -15 -7 -19 -15
-3 -8 -17 -15 -31 -15 -15 0 -24 -4 -20 -10 4 -6 -10 -10 -34 -10 -30 0 -41
-4 -41 -15 0 -11 -11 -15 -37 -15 l-38 0 2 166 2 167 86 -2 c51 -1 85 2 81 7
-3 5 4 18 14 30 21 22 27 62 10 62 -14 0 -12 28 3 33 6 2 8 8 4 13 -4 5 -11 4
-15 -2 -4 -5 -46 -10 -94 -9 l-88 0 0 78 c0 55 5 85 16 102 15 23 22 25 100
25 49 0 84 4 84 10 0 6 7 10 15 10 8 0 15 9 15 20 0 11 5 20 10 20 6 0 10 7
10 15 0 8 -4 15 -10 15 -5 0 -10 9 -10 20 0 11 5 20 11 20 5 0 7 5 3 12 -6 9
-9 9 -12 0 -4 -14 -52 -16 -52 -2 0 6 -28 10 -65 10 -37 0 -65 -4 -65 -10 0
-5 -18 -10 -40 -10 -29 0 -40 -4 -40 -15 0 -8 -5 -15 -10 -15 -15 0 -70 -58
-70 -74 0 -8 -7 -17 -16 -20 -13 -5 -15 -22 -13 -107 l3 -100 -79 -2 c-68 -2
-83 -5 -103 -24 -20 -21 -33 -81 -14 -69 4 2 13 -4 20 -15 10 -16 10 -21 -3
-25 -8 -4 -15 -11 -15 -16 0 -7 4 -7 13 0 7 6 50 12 95 13 l84 2 1 -167 2
-166 -37 0 c-27 0 -38 4 -38 15 0 11 -9 15 -32 13 -18 -1 -33 3 -36 10 -2 6
-15 12 -28 12 -15 0 -24 6 -24 15 0 8 -9 15 -19 15 -25 0 -141 116 -141 140 0
10 -7 20 -15 24 -8 3 -15 15 -15 26 0 11 -4 20 -10 20 -5 0 -10 16 -10 35 0
24 -5 35 -15 35 -13 0 -15 22 -15 140 0 118 2 140 15 140 11 0 15 9 13 32 -1
18 3 33 10 36 6 2 12 15 12 28 0 15 6 24 15 24 8 0 15 9 15 19 0 26 127 152
146 144 8 -3 14 1 14 11 0 10 8 16 21 16 11 0 27 7 35 15 10 9 24 13 40 9 18
-5 24 -2 24 10 0 14 18 16 139 16 117 0 140 -2 145 -16z"/>
</g>
</svg>
