<?xml version="1.0" standalone="no"?>
<!DOCTYPE svg PUBLIC "-//W3C//DTD SVG 20010904//EN"
 "http://www.w3.org/TR/2001/REC-SVG-20010904/DTD/svg10.dtd">
<svg version="1.0" xmlns="http://www.w3.org/2000/svg"
 width="290.000000pt" height="273.000000pt" viewBox="0 0 290.000000 273.000000"
 preserveAspectRatio="xMidYMid meet">
<metadata>
Created by potrace 1.16, written by Peter Selinger 2001-2019
</metadata>
<g transform="translate(0.000000,273.000000) scale(0.100000,-0.100000)"
fill="#000000" stroke="none">
<path d="M985 2723 c-30 -3 -53 -10 -58 -19 -5 -8 -23 -14 -42 -14 -19 0 -35
-4 -35 -10 0 -5 -16 -10 -35 -10 -23 0 -34 -4 -32 -12 1 -8 -10 -14 -25 -16
-16 -2 -28 -7 -28 -12 0 -4 -11 -11 -25 -14 -14 -4 -25 -11 -25 -16 0 -6 -7
-10 -15 -10 -15 0 -25 -6 -60 -37 -7 -7 -17 -13 -22 -13 -4 0 -22 -13 -39 -28
-18 -15 -45 -38 -60 -52 -16 -14 -32 -24 -36 -22 -5 1 -8 -2 -8 -8 0 -15 -33
-50 -42 -44 -4 3 -8 -2 -8 -10 0 -9 -7 -16 -16 -16 -8 0 -12 -5 -9 -10 3 -6
-1 -13 -9 -16 -9 -3 -16 -10 -16 -16 0 -5 -11 -21 -25 -36 -14 -15 -25 -32
-25 -39 0 -7 -7 -13 -15 -13 -8 0 -15 -9 -15 -20 0 -11 -4 -20 -10 -20 -5 0
-10 -7 -10 -15 0 -9 -7 -18 -15 -21 -8 -4 -15 -14 -15 -24 0 -10 -7 -21 -16
-24 -8 -3 -13 -10 -10 -15 4 -5 0 -16 -8 -24 -8 -7 -16 -25 -18 -38 -2 -13 -9
-23 -16 -22 -7 2 -12 -9 -12 -27 0 -17 -4 -30 -9 -30 -6 0 -11 -17 -13 -37 -2
-24 -8 -37 -15 -36 -9 2 -13 -12 -13 -47 0 -28 -4 -50 -9 -50 -16 0 -24 -134
-24 -425 0 -291 8 -425 24 -425 5 0 9 -25 9 -55 0 -39 4 -54 13 -53 7 2 13
-11 15 -35 2 -20 7 -35 13 -32 5 4 9 -12 9 -34 0 -28 4 -40 13 -39 7 2 13 -9
15 -24 2 -16 7 -28 12 -28 4 0 11 -11 14 -25 4 -14 11 -25 16 -25 6 0 10 -11
10 -24 0 -13 7 -26 15 -30 8 -3 15 -12 15 -21 0 -8 5 -15 10 -15 6 0 10 -7 10
-15 0 -8 8 -23 17 -33 36 -37 63 -72 63 -81 0 -5 7 -12 16 -15 8 -3 12 -10 9
-16 -3 -5 -1 -10 6 -10 6 0 26 -16 45 -35 18 -19 37 -35 43 -35 6 0 11 -7 11
-15 0 -8 6 -15 13 -15 7 0 24 -10 38 -22 32 -29 59 -47 82 -54 9 -4 17 -10 17
-15 0 -5 11 -9 25 -9 16 0 25 -6 25 -15 0 -10 10 -15 30 -15 17 0 30 -4 30
-10 0 -5 11 -10 24 -10 14 0 31 -7 40 -15 8 -8 31 -15 51 -15 27 0 36 -4 32
-14 -7 -17 130 -26 398 -26 256 0 435 10 432 24 -1 6 18 12 47 14 27 2 55 10
63 18 8 8 30 14 48 14 19 0 37 5 40 10 3 6 24 10 46 10 26 0 38 4 37 13 -2 7
11 13 35 15 20 2 37 7 37 13 0 5 14 9 30 9 20 0 30 5 30 15 0 9 10 15 26 15
14 0 32 6 40 14 7 8 23 12 34 9 14 -4 20 -1 18 8 -2 7 6 15 16 17 11 2 26 10
34 18 7 8 20 14 28 14 8 0 14 5 14 10 0 6 9 10 20 10 11 0 20 5 20 10 0 6 8
14 18 17 9 4 22 12 29 17 32 28 43 36 48 36 5 0 46 33 77 63 10 9 23 17 28 17
6 0 10 5 10 10 0 6 7 10 16 10 8 0 13 4 10 8 -6 9 29 42 44 42 6 0 10 5 10 11
0 6 6 16 13 23 6 7 23 27 37 45 14 18 31 39 38 46 6 8 12 16 12 20 0 4 6 13
13 20 28 33 35 43 39 61 2 10 10 18 16 16 7 -1 12 10 12 28 0 16 4 30 9 30 5
0 11 14 15 31 3 17 10 28 15 25 16 -10 23 152 19 472 -3 286 -5 314 -20 323
-11 6 -18 22 -18 39 0 17 -4 30 -10 30 -5 0 -10 16 -10 35 0 23 -4 34 -12 33
-8 -2 -14 9 -16 25 -2 15 -8 27 -13 27 -5 0 -9 9 -9 20 0 11 -7 23 -15 26 -8
4 -15 17 -15 31 0 13 -4 21 -10 18 -5 -3 -12 6 -16 20 -3 14 -10 25 -15 25 -5
0 -9 9 -9 19 0 10 -7 21 -15 25 -8 3 -15 10 -15 16 0 6 -7 18 -15 27 -12 12
-13 18 -4 29 7 8 9 17 5 21 -3 3 -6 1 -6 -5 0 -7 -7 -12 -15 -12 -8 0 -15 4
-15 10 0 9 -12 24 -73 93 -15 17 -27 37 -27 44 0 8 -4 12 -8 9 -9 -6 -42 29
-42 44 0 6 -3 9 -7 8 -8 -3 -29 13 -92 69 -20 18 -40 33 -44 33 -4 0 -20 11
-35 25 -15 14 -32 25 -39 25 -7 0 -13 7 -13 15 0 8 -6 12 -14 9 -7 -3 -20 1
-28 9 -8 8 -24 18 -36 21 -12 4 -20 12 -17 17 4 5 -8 9 -24 9 -17 0 -31 4 -31
9 0 5 -14 11 -31 15 -17 3 -28 10 -24 16 4 6 -10 10 -34 10 -30 0 -41 4 -41
15 0 11 -12 15 -46 15 -27 0 -43 4 -39 10 4 6 -13 10 -44 10 -39 0 -51 4 -51
15 0 10 -10 15 -31 15 -16 0 -28 4 -24 9 3 6 -14 11 -37 13 -24 2 -42 8 -41
14 1 7 -37 13 -110 17 -114 7 -472 6 -562 0z m235 -102 c-8 -6 -17 -8 -21 -5
-4 2 -12 -3 -19 -11 -7 -8 -25 -15 -41 -15 -18 0 -28 -5 -26 -12 1 -8 -10 -14
-25 -16 -16 -2 -28 -8 -28 -13 0 -5 -9 -9 -19 -9 -10 0 -21 -7 -25 -15 -3 -8
-15 -15 -26 -15 -11 0 -20 -4 -20 -10 0 -5 -9 -10 -19 -10 -10 0 -21 -7 -25
-15 -3 -8 -15 -15 -26 -15 -11 0 -20 -4 -20 -10 0 -5 -4 -10 -9 -10 -6 0 -25
-13 -43 -30 -18 -16 -36 -30 -40 -30 -4 0 -18 -9 -30 -19 -13 -11 -34 -29 -47
-40 -13 -11 -28 -18 -34 -14 -5 3 -7 2 -4 -4 6 -10 -26 -43 -43 -43 -6 0 -10
-7 -10 -15 0 -8 -5 -15 -10 -15 -13 0 -140 -129 -140 -142 0 -4 -7 -8 -15 -8
-8 0 -15 -7 -15 -15 0 -8 -3 -15 -7 -15 -5 0 -24 -23 -43 -50 -19 -27 -38 -50
-42 -50 -5 0 -8 -5 -8 -10 0 -10 -8 -22 -38 -55 -6 -7 -12 -21 -12 -29 0 -9
-7 -16 -15 -16 -9 0 -15 -9 -15 -25 0 -14 -4 -25 -9 -25 -5 0 -12 -11 -15 -25
-4 -14 -11 -23 -16 -20 -6 4 -10 -7 -10 -24 0 -19 -5 -31 -13 -31 -7 0 -14
-14 -15 -32 -2 -18 -7 -34 -12 -36 -6 -2 -10 -16 -10 -30 0 -15 -5 -34 -10
-42 -7 -11 -10 -4 -10 26 0 22 4 44 9 50 6 5 11 34 13 64 2 37 7 54 16 53 8
-2 12 12 12 47 0 28 4 50 9 50 6 0 11 17 13 38 2 23 8 36 16 35 7 -2 12 8 12
26 0 17 4 33 10 36 5 3 10 15 10 26 0 11 7 22 15 25 8 4 15 15 15 25 0 10 7
19 15 19 8 0 12 6 9 14 -3 7 2 20 10 29 9 9 16 18 16 22 0 7 13 23 52 66 16
16 28 32 28 35 0 10 64 69 71 67 5 -2 6 4 3 12 -4 9 0 15 9 15 8 0 18 7 21 16
3 8 10 12 16 9 5 -3 10 1 10 9 0 9 4 16 10 16 5 0 23 14 40 30 17 17 35 28 41
25 5 -4 9 1 9 9 0 9 7 16 16 16 8 0 22 7 31 15 8 8 19 13 24 10 5 -4 9 1 9 9
0 11 10 16 31 16 18 0 28 4 24 10 -4 6 7 13 25 16 17 4 33 11 36 15 3 5 20 9
39 9 20 0 35 6 39 15 4 10 20 15 51 15 25 0 45 5 45 10 0 6 33 10 79 10 44 0
83 5 86 10 3 6 16 10 28 10 17 0 19 -2 7 -9z m544 -87 c9 -3 13 -10 10 -15 -3
-5 9 -9 25 -9 21 0 31 -5 31 -15 0 -8 3 -14 8 -14 23 4 52 -2 47 -10 -3 -5 7
-11 22 -13 16 -2 27 -8 25 -15 -1 -8 8 -13 23 -13 14 0 25 -4 25 -9 0 -5 8
-12 18 -15 32 -13 62 -31 62 -38 0 -5 7 -8 15 -8 9 0 18 -7 21 -15 4 -8 10
-15 16 -15 5 0 19 -11 32 -25 13 -14 28 -25 35 -25 6 0 11 -7 11 -16 0 -8 4
-13 8 -10 10 6 122 -107 122 -123 0 -7 4 -10 8 -7 7 4 42 -27 42 -38 0 -3 13
-19 29 -36 16 -18 35 -44 42 -58 14 -28 24 -42 47 -67 6 -7 12 -21 12 -29 0
-9 4 -16 10 -16 5 0 12 -11 16 -25 3 -14 10 -25 15 -25 5 0 9 -13 9 -30 0 -19
5 -29 13 -27 7 1 13 -11 15 -31 2 -18 8 -30 13 -27 5 4 9 -9 9 -28 0 -22 6
-37 15 -41 10 -3 15 -19 15 -46 0 -25 4 -39 10 -35 6 4 10 -16 10 -53 0 -44 4
-61 15 -66 22 -8 22 -384 0 -392 -11 -4 -15 -21 -15 -55 0 -27 -4 -49 -10 -49
-5 0 -10 -18 -10 -40 0 -29 -4 -40 -15 -40 -10 0 -15 -11 -15 -35 0 -19 -4
-35 -10 -35 -5 0 -10 -9 -10 -20 0 -11 -7 -23 -15 -26 -8 -4 -15 -17 -15 -30
0 -13 -4 -24 -10 -24 -5 0 -10 -9 -10 -20 0 -11 -7 -20 -15 -20 -8 0 -15 -9
-15 -19 0 -10 -7 -21 -15 -25 -8 -3 -15 -10 -15 -16 0 -28 -192 -220 -220
-220 -6 0 -10 -4 -10 -10 0 -5 -11 -12 -25 -16 -14 -3 -25 -10 -25 -15 0 -5
-7 -9 -15 -9 -9 0 -18 -7 -21 -15 -4 -8 -15 -15 -25 -15 -10 0 -19 -4 -19 -10
0 -5 -11 -12 -25 -16 -14 -3 -25 -10 -25 -15 0 -5 -13 -9 -29 -9 -16 0 -31 -6
-35 -15 -3 -9 -18 -15 -36 -15 -16 0 -30 -4 -30 -10 0 -5 -18 -10 -40 -10 -27
0 -39 -4 -38 -12 2 -9 -13 -14 -44 -16 -27 -2 -48 -7 -48 -13 0 -5 -29 -9 -65
-9 -47 0 -64 -4 -63 -12 2 -10 -59 -14 -274 -16 -243 -2 -278 0 -278 13 0 12
-13 15 -60 15 -33 0 -60 4 -60 10 0 6 -18 10 -40 10 -27 0 -43 5 -46 15 -4 9
-19 15 -40 15 -19 0 -34 5 -34 10 0 6 -11 10 -25 10 -17 0 -39 15 -70 48 -78
83 -105 115 -105 123 0 5 -11 20 -25 35 -14 15 -25 33 -25 39 0 7 -7 15 -15
19 -8 3 -15 14 -15 25 0 11 -5 21 -10 23 -6 2 -12 13 -13 26 0 12 -7 22 -14
22 -8 0 -13 12 -13 29 0 16 -5 31 -11 33 -6 2 -13 17 -15 33 -1 16 -8 31 -13
33 -6 2 -11 19 -11 39 0 19 -7 41 -15 49 -8 9 -15 33 -15 55 0 21 -4 39 -10
39 -6 0 -10 30 -10 71 0 39 -4 68 -9 65 -17 -11 -21 27 -21 199 0 154 8 211
23 173 3 -7 6 22 6 65 1 44 5 77 11 77 6 0 10 13 10 29 0 37 10 62 21 55 5 -3
9 13 9 35 0 22 4 42 9 46 5 3 12 19 16 35 4 17 11 28 16 24 5 -3 9 9 9 25 0
17 4 31 10 31 5 0 12 11 16 25 3 14 10 25 14 25 5 0 10 10 12 23 2 12 9 21 17
19 8 -2 11 3 8 12 -4 9 0 21 6 28 7 7 16 21 20 31 4 10 11 15 17 12 5 -3 10 1
10 9 0 16 24 49 73 98 15 15 27 32 27 38 0 5 5 10 11 10 6 0 23 12 38 28 49
48 94 81 103 76 4 -3 8 2 8 10 0 9 5 16 11 16 6 0 17 7 26 16 9 8 22 13 29 10
8 -3 11 0 7 10 -3 9 2 14 16 14 12 0 21 4 21 10 0 5 11 12 25 16 14 3 25 10
25 15 0 5 11 9 24 9 13 0 26 7 30 15 3 8 15 15 26 15 11 0 20 5 20 10 0 6 16
10 35 10 23 0 34 4 32 13 -1 7 12 13 36 15 20 2 35 7 32 13 -4 5 17 9 47 10
29 0 47 3 40 6 -26 10 1 23 49 23 32 0 56 6 65 15 12 12 44 15 154 15 76 0
145 -3 154 -6z m916 -688 c0 -17 32 -80 43 -84 4 -2 7 -16 7 -32 0 -16 7 -30
15 -34 9 -3 15 -18 15 -36 0 -16 5 -30 10 -30 6 0 10 -20 10 -45 0 -31 4 -44
13 -42 8 1 13 -16 15 -56 2 -33 7 -55 13 -52 5 4 9 -74 9 -205 0 -138 -3 -209
-10 -205 -6 4 -10 -12 -10 -40 0 -31 -5 -47 -15 -51 -9 -4 -15 -19 -15 -41 0
-20 -4 -32 -10 -28 -6 4 -10 -7 -10 -24 0 -21 -5 -31 -15 -31 -9 0 -15 -9 -15
-25 0 -14 -4 -25 -10 -25 -5 0 -10 -7 -10 -15 0 -9 -7 -18 -15 -21 -8 -4 -15
-13 -15 -20 0 -8 -5 -20 -10 -27 -6 -7 -22 -25 -35 -42 -14 -16 -25 -26 -25
-22 0 16 31 67 40 67 6 0 10 11 10 25 0 14 4 25 9 25 5 0 11 10 13 22 2 13 9
22 16 21 8 -2 12 10 12 32 0 19 4 35 9 35 5 0 11 18 15 40 4 23 11 38 16 35 6
-4 10 16 10 49 0 43 3 56 15 56 13 0 15 34 15 245 0 211 -2 245 -15 245 -11 0
-15 12 -15 51 0 31 -6 56 -15 65 -8 9 -15 29 -15 45 0 16 -4 29 -10 29 -5 0
-10 13 -10 29 0 16 -7 34 -15 41 -8 7 -15 21 -15 31 0 11 -4 19 -10 19 -5 0
-10 9 -10 20 0 11 5 20 10 20 6 0 10 -6 10 -14z m-2374 -181 c-9 -21 -16 -48
-16 -61 0 -12 -7 -29 -15 -38 -9 -9 -15 -34 -15 -65 0 -28 -4 -51 -10 -51 -6
0 -10 -83 -10 -230 0 -147 4 -230 10 -230 6 0 10 -30 10 -70 0 -51 3 -69 13
-67 8 1 13 -14 15 -46 2 -26 7 -45 13 -42 5 4 9 -13 9 -39 0 -32 4 -45 13 -43
7 1 13 -12 15 -36 2 -20 7 -35 13 -32 5 4 9 3 10 -2 3 -29 9 -48 18 -51 6 -2
11 -11 11 -20 0 -8 7 -24 17 -34 9 -10 14 -21 10 -24 -6 -6 -40 25 -50 47 -12
26 -41 67 -64 94 -7 7 -13 23 -13 35 0 12 -5 18 -10 15 -6 -4 -13 7 -16 24 -4
17 -10 31 -15 31 -5 0 -9 18 -9 41 0 22 -4 38 -9 35 -12 -8 -21 19 -21 65 0
24 -4 38 -10 34 -7 -4 -10 72 -10 219 0 144 4 226 10 226 6 0 10 20 10 44 0
51 8 78 21 70 5 -3 9 15 9 40 0 25 5 48 10 51 6 3 10 15 10 27 0 11 6 32 14
46 8 15 19 40 25 56 7 16 14 26 17 23 3 -2 -2 -22 -10 -42z"/>
<path d="M1134 1991 c7 -11 -17 -21 -51 -21 -13 0 -31 -7 -39 -15 -8 -8 -21
-12 -30 -8 -8 3 -14 2 -12 -3 1 -5 -26 -36 -60 -69 -34 -33 -62 -68 -62 -78 0
-10 -7 -20 -15 -23 -10 -4 -15 -20 -15 -45 0 -21 -4 -39 -10 -39 -6 0 -10
-123 -10 -350 0 -227 4 -350 10 -350 6 0 10 -18 10 -39 0 -25 5 -41 15 -45 8
-3 15 -13 15 -23 0 -10 28 -45 62 -78 34 -33 61 -63 60 -67 -1 -4 4 -5 12 -2
7 3 20 -2 28 -10 8 -8 33 -16 54 -18 25 -2 38 -8 37 -15 -2 -10 74 -13 360
-12 199 0 356 3 349 6 -22 9 -2 23 34 23 20 0 42 7 51 16 9 8 22 13 30 10 8
-3 11 -1 8 4 -3 6 1 13 11 17 9 3 33 24 53 46 20 22 41 45 47 52 7 6 14 20 16
31 2 10 10 18 16 17 8 -2 12 12 12 42 0 25 5 45 10 45 6 0 10 123 10 350 0
227 -4 350 -10 350 -5 0 -10 20 -10 45 0 30 -4 44 -12 42 -6 -1 -14 6 -16 17
-6 26 -94 126 -112 126 -6 0 -13 7 -16 15 -4 8 -10 13 -14 10 -5 -3 -15 2 -23
10 -9 8 -27 15 -40 15 -34 0 -58 10 -51 21 3 5 -144 9 -351 9 -207 0 -354 -4
-351 -9z m740 -167 c3 -8 10 -12 16 -9 6 3 13 -1 16 -9 3 -9 10 -16 16 -16 13
0 38 -26 38 -40 0 -6 7 -18 15 -26 13 -13 15 -70 15 -384 0 -281 -3 -372 -12
-382 -7 -7 -19 -25 -27 -40 -8 -16 -20 -28 -28 -28 -7 0 -13 -4 -13 -10 0 -5
-6 -10 -14 -10 -7 0 -19 -7 -26 -15 -19 -23 -751 -23 -770 0 -7 8 -19 15 -26
15 -8 0 -14 5 -14 10 0 6 -7 10 -16 10 -10 0 -14 5 -10 16 3 8 2 12 -4 9 -6
-3 -13 2 -17 12 -4 10 -11 21 -15 24 -12 8 -11 771 0 778 5 3 11 14 15 24 4
10 11 15 17 12 6 -3 7 1 4 9 -4 10 -1 16 9 16 8 0 18 7 21 16 3 8 10 12 16 9
6 -3 13 1 16 9 5 14 51 16 389 16 338 0 384 -2 389 -16z"/>
<path d="M1710 1751 c0 -5 8 -12 18 -16 15 -6 15 -8 -5 -25 -28 -22 -34 -100
-8 -100 8 0 15 -7 15 -15 0 -8 7 -15 15 -15 8 0 15 -4 15 -10 0 -5 21 -10 46
-10 25 0 43 4 40 9 -3 4 6 13 19 19 22 10 25 18 25 67 0 42 -3 55 -15 55 -17
0 -21 26 -4 32 6 2 -24 2 -65 0 -51 -3 -76 -1 -76 7 0 6 -4 11 -10 11 -5 0
-10 -4 -10 -9z"/>
<path d="M1450 1650 c0 -5 -20 -10 -44 -10 -30 0 -46 -5 -50 -15 -3 -8 -15
-15 -26 -15 -12 0 -18 -4 -15 -10 3 -5 0 -10 -8 -10 -15 0 -67 -54 -67 -70 0
-5 -7 -10 -16 -10 -8 0 -13 -4 -9 -9 3 -5 -1 -16 -9 -24 -8 -8 -16 -32 -18
-53 -2 -25 -8 -38 -15 -37 -9 2 -13 -12 -13 -47 0 -35 4 -49 13 -48 8 2 13
-12 15 -40 2 -23 7 -40 13 -37 8 5 14 -15 10 -37 0 -5 6 -8 14 -8 8 0 15 -5
15 -10 0 -15 55 -70 69 -70 7 0 10 -4 6 -9 -3 -5 5 -11 17 -13 13 -2 22 -9 20
-16 -1 -8 14 -12 49 -12 31 0 48 -4 44 -10 -4 -6 12 -10 40 -10 28 0 44 4 40
10 -4 6 13 10 44 10 34 0 50 4 49 12 -2 6 6 14 17 16 23 5 95 74 95 91 0 6 7
11 15 11 9 0 15 10 15 26 0 14 4 23 10 19 6 -4 10 8 10 29 0 47 10 72 21 54 5
-8 9 8 9 42 0 34 -4 50 -9 42 -10 -16 -21 16 -21 61 0 15 -4 27 -10 27 -5 0
-10 9 -10 20 0 11 -7 20 -15 20 -8 0 -15 5 -15 11 0 17 -72 86 -95 91 -11 2
-19 10 -17 16 1 8 -15 12 -49 12 -31 0 -48 4 -44 10 4 6 -10 10 -34 10 -23 0
-41 -4 -41 -10z m110 -155 c7 -8 19 -15 26 -15 8 0 14 -7 14 -15 0 -8 6 -14
13 -12 6 1 11 -4 9 -11 -1 -7 5 -15 13 -18 21 -9 21 -146 0 -164 -8 -7 -12
-16 -9 -21 3 -5 -2 -9 -10 -9 -9 0 -16 -7 -16 -15 0 -8 -6 -15 -14 -15 -7 0
-18 -6 -25 -13 -14 -17 -135 -17 -153 1 -6 6 -18 12 -25 12 -7 0 -13 5 -13 10
0 6 -11 23 -25 38 -21 23 -25 36 -25 93 0 47 4 70 15 79 8 7 15 19 15 27 0 8
5 11 10 8 6 -3 10 1 10 9 0 9 6 16 14 16 7 0 19 7 26 15 9 10 32 15 75 15 43
0 66 -5 75 -15z"/>
</g>
</svg>
