<?xml version="1.0" encoding="UTF-8"?>
<svg version="1.1" xmlns="http://www.w3.org/2000/svg" width="480" height="443">
<path d="M0 0 C1.94831922 1.8602596 3.71092513 3.62107818 5.38671875 5.73046875 C5.79354889 6.2186911 6.20037903 6.70691345 6.61953735 7.20993042 C11.28518191 13.55110343 11.12907331 19.6280062 11.0859375 27.28515625 C11.09667046 29.23024582 11.09667046 29.23024582 11.10762024 31.21463013 C11.11944858 33.94985312 11.11288367 36.6842598 11.09350586 39.41943359 C11.07065732 42.89870807 11.0973755 46.37553364 11.13856792 49.85456657 C11.17052593 53.20657619 11.15713301 56.5580052 11.1484375 59.91015625 C11.16371994 61.14587372 11.17900238 62.38159119 11.19474792 63.65475464 C11.05811846 73.8869196 7.81923927 80.22816192 0.88671875 87.60546875 C-1.28089149 89.6680406 -3.13814606 91.04538763 -5.73828125 92.60546875 C-9.1482361 95.12587016 -10.42638756 97.55178073 -12.2421875 101.31640625 C-18.68562316 112.66125878 -30.71617091 118.74874144 -42.82543945 122.32910156 C-48.37710365 123.83246412 -53.87074785 124.59663852 -59.61328125 124.73046875 C-58.76056641 125.74753906 -58.76056641 125.74753906 -57.890625 126.78515625 C-42.68776816 145.10980173 -31.57555794 164.17657529 -31.375 188.52734375 C-31.36692825 189.47498596 -31.35885651 190.42262817 -31.35054016 191.39898682 C-31.33673988 193.40610959 -31.32599968 195.41325543 -31.31811523 197.42041016 C-31.30668054 199.43903663 -31.28636665 201.45763496 -31.2565918 203.47607422 C-31.00623379 220.48643215 -32.60488944 236.02850225 -39.30078125 251.85546875 C-39.64109375 252.67966309 -39.98140625 253.50385742 -40.33203125 254.35302734 C-45.50985179 266.56562316 -51.82263025 277.74728758 -60.61328125 287.73046875 C-61.2990625 288.54773438 -61.98484375 289.365 -62.69140625 290.20703125 C-86.76673382 318.17944422 -123.9728332 333.36726657 -160.1328125 336.37890625 C-190.95565062 338.56095505 -223.34441046 335.19652491 -247.79296875 314.39453125 C-249.09527686 313.20400924 -250.36561361 311.97813639 -251.61328125 310.73046875 C-251.92442871 311.36847412 -252.23557617 312.00647949 -252.55615234 312.66381836 C-264.47490048 337.01961616 -277.21269647 360.59469929 -295.61328125 380.73046875 C-296.08878418 381.25125 -296.56428711 381.77203125 -297.05419922 382.30859375 C-311.38879618 397.78785114 -332.95266907 412.6222809 -354.75784302 413.85134888 C-360.5491405 414.02029723 -366.34377427 414.0479348 -372.13720703 414.08056641 C-374.26655093 414.09700299 -376.39584255 414.12412661 -378.52490234 414.16259766 C-395.23541419 414.46225599 -409.93685326 412.94958564 -424.92578125 404.98046875 C-425.57619385 404.64321777 -426.22660645 404.3059668 -426.89672852 403.95849609 C-444.57078984 394.50891209 -458.18810937 379.98195008 -464.11328125 360.66796875 C-466.01028518 352.93812095 -465.99442509 345.02401261 -466.05078125 337.10546875 C-466.06625 335.30130493 -466.06625 335.30130493 -466.08203125 333.46069336 C-465.89481216 314.38644793 -460.38078971 298.98495611 -447.61328125 284.73046875 C-447.09507812 284.09625 -446.576875 283.46203125 -446.04296875 282.80859375 C-439.53931801 275.42253813 -428.63671135 270.16785475 -418.84765625 269.45703125 C-404.83318476 269.01012917 -392.92609691 271.83529198 -380.61328125 278.73046875 C-379.95328125 279.06046875 -379.29328125 279.39046875 -378.61328125 279.73046875 C-367.0186066 251.49894632 -357.80284864 223.13595323 -349.55865479 193.75389099 C-338.51766935 154.41374955 -327.8862891 123.15766887 -292.61328125 99.73046875 C-293.08378906 99.04082031 -293.55429687 98.35117188 -294.0390625 97.640625 C-301.14231473 86.91956729 -303.23161566 78.54437305 -303.61328125 65.73046875 C-303.6405127 64.9513916 -303.66774414 64.17231445 -303.69580078 63.36962891 C-304.34295118 42.5753434 -300.84218043 27.4827671 -287.05859375 11.26953125 C-277.59479044 1.44289842 -264.16035137 -6.03026531 -250.35546875 -6.60546875 C-232.91090756 -6.87648961 -218.52034402 -4.7446612 -204.81640625 7.16015625 C-200.18276784 11.67041375 -196.14439992 16.3160868 -192.61328125 21.73046875 C-191.91589844 21.02148438 -191.21851563 20.3125 -190.5 19.58203125 C-141.8307411 -28.96781482 -54.83711964 -47.62386623 0 0 Z M-207.61328125 180.73046875 C-208.60328125 184.69046875 -209.59328125 188.65046875 -210.61328125 192.73046875 C-205.33328125 193.72046875 -200.05328125 194.71046875 -194.61328125 195.73046875 C-200.29197466 187.96836994 -200.29197466 187.96836994 -206.61328125 180.73046875 C-206.94328125 180.73046875 -207.27328125 180.73046875 -207.61328125 180.73046875 Z " fill="#000000" transform="translate(469.61328125,29.26953125)"/>
<path d="M0 0 C1.28777344 0.33064453 1.28777344 0.33064453 2.6015625 0.66796875 C14.14480814 4.37158339 27.50397794 14.82541443 33.375 25.5 C35.16583438 32.66333753 33.54241133 38.68617275 30 45 C26.15858823 49.5450367 21.56165224 52.07481269 16 54 C15.01 54 14.02 54 13 54 C13.0825 55.175625 13.165 56.35125 13.25 57.5625 C13.19353243 62.13637355 12.20588625 65.6530234 9 69 C-0.98780607 75.77799632 -10.8545377 78.08250222 -22.8046875 78.2109375 C-24.29037565 78.23900369 -25.77605259 78.26766814 -27.26171875 78.296875 C-29.56754256 78.33802418 -31.87315653 78.3749789 -34.17919922 78.40136719 C-48.38014387 78.28759192 -48.38014387 78.28759192 -60.875 84.3125 C-66.76290001 91.75896178 -66.92724664 98.78671951 -66 108 C-64.98629403 111.09591284 -63.76427172 113.21993547 -62 116 C-61.67 116.99 -61.34 117.98 -61 119 C-59.67976628 119.69224644 -58.34350779 120.35408279 -57 121 C-55.37982748 122.35289916 -53.79938255 123.75407443 -52.25 125.1875 C-51.36828125 125.99574219 -50.4865625 126.80398437 -49.578125 127.63671875 C-48.72734375 128.41660156 -47.8765625 129.19648438 -47 130 C-45.67100886 131.17161061 -44.3380396 132.33873392 -43 133.5 C-42.35933594 134.06332031 -41.71867188 134.62664062 -41.05859375 135.20703125 C-39.58484892 136.49061546 -38.09603521 137.75697864 -36.59765625 139.01171875 C-21.93910984 151.59232021 -13.40588216 166.65889025 -11.64453125 185.87890625 C-11.15085992 208.42323024 -20.40208548 231.94865447 -35 249 C-35.98226562 250.19882812 -35.98226562 250.19882812 -36.984375 251.421875 C-51.46795389 268.44272319 -71.81434485 278.78541005 -93 285 C-93.66209473 285.20882813 -94.32418945 285.41765625 -95.00634766 285.6328125 C-119.9388701 293.27644781 -153.23652941 292.35046125 -176.50634766 280.27099609 C-186.20589991 274.86593969 -193.08146376 267.98316761 -198 258 C-198.33902344 257.32066406 -198.67804688 256.64132812 -199.02734375 255.94140625 C-202.4523153 248.09711656 -201.58952012 240.20042997 -198.90625 232.25 C-196.47713873 226.21910305 -192.41364237 221.55203412 -187 218 C-176.30243972 213.85827281 -165.32874403 216.24840434 -154.4375 218.5 C-131.73128734 222.76745307 -115.36881381 222.3276463 -95.4375 209.6875 C-92.50855215 207.63075393 -90.38719327 205.70639159 -89.55859375 202.0546875 C-89.23035913 196.14646433 -90.7273797 192.83376856 -94.5546875 188.37890625 C-98.56463824 184.47785193 -102.97734823 181.14598694 -107.4296875 177.76953125 C-111.69861982 174.51009739 -115.60236964 170.93119504 -119.5390625 167.27734375 C-121.73959446 165.24097846 -123.97728703 163.26738147 -126.25 161.3125 C-140.06126184 149.21709758 -151.79028171 133.4541358 -153.18017578 114.54931641 C-154.4960774 88.30203142 -148.82033208 60.28049897 -130.87280273 40.11157227 C-128.63045991 37.69148973 -126.31881557 35.34696508 -124 33 C-123.42894531 32.35675781 -122.85789062 31.71351562 -122.26953125 31.05078125 C-108.10656421 15.43146799 -83.94400659 5.32289365 -64 0 C-62.8965625 -0.31582031 -61.793125 -0.63164062 -60.65625 -0.95703125 C-42.15018621 -5.36227904 -18.27341531 -5.33170344 0 0 Z " fill="#F06262" transform="translate(425,31)"/>
<path d="M0 0 C1.2890625 -0.01675781 2.578125 -0.03351563 3.90625 -0.05078125 C7.7052184 0.3332449 9.56915808 0.89791648 12.5 3.3125 C13.50390625 5.3984375 13.50390625 5.3984375 14.0625 7.6875 C15.50219625 12.59195975 17.36891397 15.64321989 21.46484375 18.8515625 C25.68795649 22.19645107 28.8470835 24.85865976 29.51757812 30.39819336 C29.49545613 34.06583551 28.73858473 37.42523752 27.8671875 40.96484375 C27.5984935 42.07772514 27.5984935 42.07772514 27.32437134 43.21308899 C25.17599009 51.90916974 22.54840437 60.45373368 19.875 69 C19.61266571 69.84355042 19.35033142 70.68710083 19.08004761 71.55621338 C17.23748271 77.48053611 15.37404467 83.39806833 13.5 89.3125 C13.16328278 90.37836334 13.16328278 90.37836334 12.81976318 91.46575928 C-27.34326656 218.47127816 -27.34326656 218.47127816 -75.59375 245.33105469 C-94.64822313 255.14137513 -118.44519886 257.74392348 -139.2734375 252.33203125 C-156.13895244 246.67970574 -168.83170952 239.37645105 -177.5 223.3125 C-180.91755034 216.05449175 -180.40135778 208.1434673 -177.9375 200.625 C-174.28243441 191.6746097 -167.56679136 183.18863757 -158.5 179.3125 C-149.45375163 177.72982303 -140.74131836 181.09759673 -133.10546875 185.78125 C-127.93770229 189.8127007 -125.49105403 194.68617477 -122.921875 200.640625 C-121.39264124 203.51424009 -120.40330075 204.85025364 -117.5 206.3125 C-114.24991457 206.26203283 -112.93261536 205.72577077 -110.578125 203.4765625 C-92.84306326 178.8445323 -81.6291912 145.3341053 -73.5 116.3125 C-73.24460449 115.4054834 -72.98920898 114.4984668 -72.72607422 113.56396484 C-71.16960608 107.99884803 -69.6609469 102.42176268 -68.17333984 96.83789062 C-66.3443456 89.97816746 -64.44938923 83.13895895 -62.5 76.3125 C-62.1709668 75.15524414 -61.84193359 73.99798828 -61.50292969 72.80566406 C-60.56315241 69.51103193 -59.60767133 66.22119617 -58.6444397 62.93334961 C-58.07997576 60.99743576 -57.52650332 59.05832761 -56.97338867 57.11914062 C-49.62170983 32.23199405 -34.81262272 15.10122472 -12.5 2.3125 C-8.29165282 0.16959929 -4.70742188 0.01412227 0 0 Z " fill="#F06262" transform="translate(209.5,144.6875)"/>
<path d="M0 0 C8.53657176 4.74967151 15.57642722 12.04988263 18.59765625 21.4453125 C19.72577311 30.55556711 19.4454034 38.93835163 14.12109375 46.55859375 C9.49468902 52.33631838 4.52418373 55.13647001 -2.40234375 57.4453125 C-16.2185651 58.43724634 -26.87795792 57.43673322 -37.83984375 48.1328125 C-43.97467777 42.22482925 -48.39703855 36.13656202 -48.90234375 27.4453125 C-48.80818829 18.53585181 -43.32044965 12.26925248 -37.46484375 6.0078125 C-27.28146313 -3.66045548 -12.88304303 -5.42643639 0 0 Z " fill="#EF6262" transform="translate(240.40234375,50.5546875)"/>
</svg>
