<?xml version="1.0" encoding="UTF-8"?>
<svg version="1.1" xmlns="http://www.w3.org/2000/svg" width="1226" height="383">
<path d="M0 0 C5.86008888 4.95786294 9.65869302 10.22551292 13.23828125 16.9609375 C14.23359077 18.63040949 15.23303103 20.29743224 16.23828125 21.9609375 C16.91479736 21.69990234 17.59131348 21.43886719 18.28833008 21.16992188 C43.11976072 11.64359491 68.02618718 3.74958696 94.23828125 -1.0390625 C95.48351562 -1.28527344 96.72875 -1.53148437 98.01171875 -1.78515625 C121.54430067 -5.76210774 151.50553955 -6.5153446 172.23828125 6.9609375 C182.13462969 14.41829226 186.98493616 26.11537111 189.23828125 37.9609375 C189.72554688 37.47625 190.2128125 36.9915625 190.71484375 36.4921875 C203.358727 24.5379706 217.15625122 18.42720821 234.53833008 18.53857422 C245.4688883 18.88980291 255.1523386 22.97459168 264.23828125 28.9609375 C265.0744397 29.49533447 265.0744397 29.49533447 265.92749023 30.04052734 C272.12975076 34.57012601 274.10617845 40.8200112 276.67578125 47.8359375 C277.12115234 49.00125 277.56652344 50.1665625 278.02539062 51.3671875 C279.11478719 54.22538924 280.18492322 57.08930185 281.23828125 59.9609375 C281.76035156 58.94515625 282.28242187 57.929375 282.8203125 56.8828125 C287.89669103 47.28369323 293.46890611 39.53229259 301.23828125 31.9609375 C301.88152344 31.30867188 302.52476562 30.65640625 303.1875 29.984375 C319.92813609 14.07895503 343.74808841 6.39336583 366.40625 6.54125977 C378.81491898 6.89081557 390.62857805 9.65815394 400.23828125 17.9609375 C407.88537534 26.25695305 411.0393191 34.93048569 412.23828125 45.9609375 C412.65335938 45.34347656 413.0684375 44.72601563 413.49609375 44.08984375 C420.55007044 34.39431512 430.09778882 28.22722452 441.23828125 23.9609375 C442.22828125 23.9609375 443.21828125 23.9609375 444.23828125 23.9609375 C444.42390625 23.1565625 444.60953125 22.3521875 444.80078125 21.5234375 C448.92507603 11.30235914 457.97862232 3.39841924 467.87890625 -1.1953125 C481.79061481 -6.17036059 495.65084443 -6.73260137 509.3046875 -0.6796875 C522.00194978 6.02308497 529.82045914 15.28566905 534.23828125 28.9609375 C534.99361371 31.61970777 535.63827655 34.26091633 536.23828125 36.9609375 C537.07746094 36.14302734 537.07746094 36.14302734 537.93359375 35.30859375 C549.26382008 24.65235195 562.26039061 17.5406638 576.23828125 10.9609375 C576.95532227 10.61643555 577.67236328 10.27193359 578.41113281 9.91699219 C593.43184286 2.72855693 608.62983929 -2.17683824 625.23828125 -4.0390625 C626.67494141 -4.20535156 626.67494141 -4.20535156 628.140625 -4.375 C658.34896302 -7.37555975 686.68444391 -3.33405007 711.73828125 14.4609375 C712.49222168 14.99452881 713.24616211 15.52812012 714.02294922 16.07788086 C718.31041879 19.22231277 721.77256239 22.44603737 725.02929688 26.65820312 C725.42826172 27.08810547 725.82722656 27.51800781 726.23828125 27.9609375 C726.89828125 27.9609375 727.55828125 27.9609375 728.23828125 27.9609375 C729.22260398 26.87666815 730.14966146 25.74028336 731.05078125 24.5859375 C743.50556047 10.05108175 761.04609218 1.71593295 779.23828125 -3.0390625 C780.15738281 -3.28527344 781.07648438 -3.53148437 782.0234375 -3.78515625 C797.07433694 -7.15823263 814.78447925 -6.58556171 828.11328125 1.7109375 C832.60284117 5.00272304 836.42956069 8.91955754 840.23828125 12.9609375 C841.23489336 13.96431395 842.23366949 14.96557063 843.23828125 15.9609375 C843.68816406 15.46464844 844.13804688 14.96835937 844.6015625 14.45703125 C858.83710917 -0.57730361 878.05038565 -7.05068175 898.41015625 -8.03515625 C913.5693307 -8.0506248 928.00835755 -4.65484975 939.23828125 5.9609375 C946.90739004 13.6899612 949.70390995 19.84117812 949.8828125 30.71875 C949.9066803 31.7657457 949.9305481 32.81274139 949.95513916 33.89146423 C950.34808204 55.98042375 950.14735978 74.52842572 940.96337891 94.86865234 C937.02138805 103.93583192 934.13539169 113.47260039 930.98828125 122.8359375 C930.24559959 125.03114032 929.50276022 127.22628979 928.75976562 129.42138672 C912.1359774 178.66675099 898.9422057 228.70086431 887.08203125 279.28515625 C886.85211487 280.26390717 886.62219849 281.24265808 886.38531494 282.25106812 C885.3728408 286.57378955 884.3739944 290.89870606 883.40527344 295.23144531 C881.73817481 302.57327356 879.80044282 309.67738169 877.1796875 316.7421875 C876.93772644 317.39565659 876.69576538 318.04912567 876.44647217 318.72239685 C872.86004771 327.97443462 866.62884147 334.73403114 858.23828125 339.9609375 C857.12453125 340.2290625 856.01078125 340.4971875 854.86328125 340.7734375 C852.05654486 341.69125305 852.05654486 341.69125305 851.2421875 344.22265625 C850.47749679 346.78748011 849.84983131 349.35635021 849.23828125 351.9609375 C848.90828125 352.6209375 848.57828125 353.2809375 848.23828125 353.9609375 C847.10390625 354.0434375 845.96953125 354.1259375 844.80078125 354.2109375 C841.0114244 354.58178203 838.62744479 355.73276058 835.42578125 357.7734375 C821.29074527 366.77238407 804.6011634 368.72049145 788.3203125 365.7109375 C774.74220684 362.4067597 763.48663099 354.72167318 755.91796875 342.8984375 C754.9825667 341.27620178 754.10329902 339.62177162 753.23828125 337.9609375 C752.69300781 338.60160156 752.14773438 339.24226563 751.5859375 339.90234375 C739.22742383 354.07766456 724.95812036 361.85792396 706.17578125 364.7109375 C688.30070277 365.84586312 670.25061505 364.06107362 656.23828125 351.9609375 C651.01560888 347.09435643 647.1672049 342.4294052 644.48828125 335.7734375 C644.0603125 334.72800781 643.63234375 333.68257813 643.19140625 332.60546875 C642.23828125 329.9609375 642.23828125 329.9609375 642.23828125 327.9609375 C641.34109375 328.59 640.44390625 329.2190625 639.51953125 329.8671875 C630.46049884 336.12106399 621.25526762 341.40090985 611.23828125 345.9609375 C609.45357422 346.77884766 609.45357422 346.77884766 607.6328125 347.61328125 C573.96975942 362.040304 531.64261815 364.21216041 497.36523438 350.84521484 C479.99609577 343.62402338 464.54465628 332.2415368 456.23828125 314.9609375 C455.65820312 315.89035156 455.078125 316.81976563 454.48046875 317.77734375 C442.53618849 336.76548927 428.93497686 347.392738 406.9140625 353.1640625 C385.83866495 357.7330116 362.57642112 356.26747707 343.88720703 345.02392578 C334.12267083 338.72916851 329.66044224 328.73914549 326.23828125 317.9609375 C325.77679687 318.60160156 325.3153125 319.24226563 324.83984375 319.90234375 C315.28692653 332.57034267 297.30247187 344.51392398 281.23828125 346.9609375 C264.67236419 348.81225066 246.00499762 349.91173461 232.23828125 338.9609375 C223.68338133 331.64218138 219.02077129 322.41840996 215.23828125 311.9609375 C214.71041016 312.76144531 214.71041016 312.76144531 214.171875 313.578125 C213.12022465 315.1652109 212.06236793 316.7481932 211 318.328125 C209.86083188 320.0305625 208.73724607 321.7435764 207.6328125 323.46875 C197.16430666 339.33313651 181.40790168 347.57943503 163.23828125 351.9609375 C147.36027071 355.11958045 131.81028569 352.83152864 118.23828125 343.9609375 C116.11280924 342.37919089 114.19204183 340.75628506 112.23828125 338.9609375 C111.52285156 339.54101562 110.80742187 340.12109375 110.0703125 340.71875 C95.41687552 352.20643798 80.28117503 356.23000483 62.23828125 359.9609375 C60.97129395 360.23429932 60.97129395 360.23429932 59.67871094 360.51318359 C27.68593445 367.18110984 -18.09799859 367.72568011 -46.82421875 350.6484375 C-58.14899079 342.69330622 -65.52025978 333.11640048 -68.36645508 319.41845703 C-69.06169938 315.09583247 -69.23281212 310.7687444 -69.38671875 306.3984375 C-69.42539063 305.48513672 -69.4640625 304.57183594 -69.50390625 303.63085938 C-69.59702127 301.40773826 -69.68284041 299.18460137 -69.76171875 296.9609375 C-70.2 297.59257812 -70.63828125 298.22421875 -71.08984375 298.875 C-94.43724113 331.80811744 -127.04026128 359.52677787 -166.76171875 369.9609375 C-172.25847489 370.76504811 -177.63676268 371.15247668 -183.1875 371.234375 C-183.96867691 371.24699371 -184.74985382 371.25961243 -185.55470276 371.27261353 C-218.17130298 371.6981381 -218.17130298 371.6981381 -231.76171875 365.9609375 C-232.4686084 365.67154297 -233.17549805 365.38214844 -233.90380859 365.08398438 C-243.16869016 361.17818064 -250.85584607 356.39114496 -257.76171875 348.9609375 C-258.74398438 347.91486328 -258.74398438 347.91486328 -259.74609375 346.84765625 C-272.84454308 331.53814389 -274.46074874 308.27983203 -274.28320312 289.03491211 C-274.26164478 286.26393032 -274.28320618 283.49551649 -274.30859375 280.72460938 C-274.33177737 266.76171397 -272.87715466 253.30740312 -266.07421875 240.8359375 C-265.73535645 240.18979492 -265.39649414 239.54365234 -265.04736328 238.87792969 C-254.84517213 219.79476138 -254.84517213 219.79476138 -246.76171875 214.9609375 C-245.76914063 214.3009375 -244.7765625 213.6409375 -243.75390625 212.9609375 C-229.24580372 203.65248074 -213.34630346 199.39365637 -196.14453125 202.64453125 C-186.36112075 205.41841587 -179.4138926 210.52788665 -171.76171875 216.9609375 C-165.89150326 204.0200644 -160.25335187 190.99608109 -155.00253296 177.79196167 C-154.24221965 175.88148781 -153.47447948 173.97397448 -152.70629883 172.06665039 C-142.93534256 147.46489571 -135.67614097 122.1984649 -129.08068848 96.60284424 C-127.37878188 90.00900595 -125.65432813 83.42097637 -123.93359375 76.83203125 C-123.75117001 76.13310131 -123.56874626 75.43417137 -123.38079453 74.71406174 C-121.12657424 66.08351435 -118.85248517 57.45943156 -116.44140625 48.87109375 C-116.21918396 48.06473984 -115.99696167 47.25838593 -115.76800537 46.42759705 C-110.20671356 26.95193425 -97.06403074 12.15090607 -79.76171875 1.9609375 C-54.9893023 -11.75962324 -24.42321689 -18.03241756 0 0 Z M138.55078125 132.4609375 C138.11765625 132.9559375 137.68453125 133.4509375 137.23828125 133.9609375 C138.55828125 135.6109375 139.87828125 137.2609375 141.23828125 138.9609375 C141.89828125 136.3209375 142.55828125 133.6809375 143.23828125 130.9609375 C140.23568608 130.62875558 140.23568608 130.62875558 138.55078125 132.4609375 Z M674.48828125 144.3984375 C670.06476284 145.53652719 665.77328921 146.44559569 661.23828125 146.9609375 C662.71088721 150.31605005 664.62567235 152.66058453 667.11328125 155.3359375 C670.19667717 158.72767301 672.83890197 162.06194617 675.23828125 165.9609375 C677.35168589 163.84753286 677.8226325 162.71108104 678.74609375 159.93359375 C679.01035156 159.14146484 679.27460937 158.34933594 679.546875 157.53320312 C679.81628906 156.70498047 680.08570313 155.87675781 680.36328125 155.0234375 C680.64042969 154.19908203 680.91757812 153.37472656 681.203125 152.52539062 C682.77328876 147.84494825 682.77328876 147.84494825 683.23828125 142.9609375 C680.03948914 142.9609375 677.57566769 143.57957485 674.48828125 144.3984375 Z M500.23828125 174.9609375 C498.38306599 180.47724245 496.53175152 185.9948349 494.68408203 191.51367188 C494.05462689 193.39196341 493.42409653 195.26989496 492.79248047 197.14746094 C491.88618351 199.84216494 490.98372777 202.53812867 490.08203125 205.234375 C489.79767212 206.07712982 489.51331299 206.91988464 489.22033691 207.78817749 C487.77279494 211.78649437 487.77279494 211.78649437 487.23828125 215.9609375 C487.96305664 215.95570068 488.68783203 215.95046387 489.43457031 215.94506836 C492.78579812 215.9240099 496.13701192 215.91118689 499.48828125 215.8984375 C501.19757812 215.88586914 501.19757812 215.88586914 502.94140625 215.87304688 C510.42724523 215.85178029 517.79028582 216.20781712 525.23828125 216.9609375 C524.87025391 216.48092285 524.50222656 216.0009082 524.12304688 215.50634766 C522.4712342 213.34154588 520.85403368 211.15279838 519.23828125 208.9609375 C518.52671875 208.00445312 517.81515625 207.04796875 517.08203125 206.0625 C510.13184565 196.42268778 504.83243747 186.33375066 501.23828125 174.9609375 C500.90828125 174.9609375 500.57828125 174.9609375 500.23828125 174.9609375 Z M114.67578125 224.4609375 C113.46921875 225.6984375 113.46921875 225.6984375 112.23828125 226.9609375 C112.56828125 227.9509375 112.89828125 228.9409375 113.23828125 229.9609375 C114.22828125 230.2909375 115.21828125 230.6209375 116.23828125 230.9609375 C116.89828125 227.9909375 117.55828125 225.0209375 118.23828125 221.9609375 C116.76091143 221.84455019 116.76091143 221.84455019 114.67578125 224.4609375 Z " fill="#010000" transform="translate(276.76171875,12.0390625)"/>
<path d="M0 0 C0.88751953 0.59554687 0.88751953 0.59554687 1.79296875 1.203125 C5.13340075 3.71043263 7.03297492 5.93849466 8 10 C8.45373488 16.08312354 7.03478108 20.59530048 4.9375 26.1875 C4.28363286 27.99210733 3.62999272 29.79679692 2.9765625 31.6015625 C2.64301758 32.51067383 2.30947266 33.41978516 1.96582031 34.35644531 C0.54484617 38.24580528 -0.82380124 42.15275988 -2.1875 46.0625 C-2.4664209 46.86083252 -2.7453418 47.65916504 -3.03271484 48.48168945 C-4.02346899 51.3205503 -5.01166126 54.16029734 -6 57 C-6.42410156 58.21510254 -6.84820313 59.43020508 -7.28515625 60.68212891 C-22.19170987 103.432483 -34.99119435 146.44745167 -45.86723328 190.3966217 C-47.48485085 196.93132954 -49.11474246 203.46285237 -50.75390625 209.9921875 C-50.97453232 210.87144897 -51.19515839 211.75071045 -51.42247009 212.65661621 C-52.28555702 216.0962694 -53.14865117 219.53592072 -54.01217651 222.97546387 C-56.15767544 231.52734876 -58.27851561 240.08096115 -60.26342773 248.671875 C-65.42192192 270.94503791 -65.42192192 270.94503791 -72.72265625 275.7578125 C-75.11962069 277.06524765 -77.56531108 278.14774005 -80.0625 279.25 C-84.21052107 281.19458217 -86.06861456 283.13266692 -88.5 287 C-92.0002697 292.56071215 -95.93445249 294.75002874 -102 297 C-103.39798828 297.54527344 -103.39798828 297.54527344 -104.82421875 298.1015625 C-113.3542887 300.51474342 -123.88795381 300.13671735 -131.94140625 296.34765625 C-135.94028234 293.72979619 -138.86947126 290.26105747 -141 286 C-141.49642627 279.89379576 -140.72742848 274.03136589 -139.5 268.0625 C-139.32984375 267.22203125 -139.1596875 266.3815625 -138.984375 265.515625 C-135.18301212 247.76736991 -129.27874275 230.05596759 -122.77734375 213.1171875 C-121.80668199 210.47347558 -120.93773157 207.80177826 -120.0625 205.125 C-118.8622044 201.48334846 -117.59609804 197.91540192 -116.125 194.375 C-112.98728611 186.74407982 -110.56148813 178.83815369 -108 171 C-120.78001393 176.05238589 -133.54053049 181.10869035 -146.0859375 186.72265625 C-149 188 -149 188 -152 189 C-153.04932256 191.62001981 -153.04932256 191.62001981 -154 195 C-154.55485177 196.46904445 -155.12564351 197.9321218 -155.70825195 199.39038086 C-156.03231522 200.20240463 -156.35637848 201.01442841 -156.69026184 201.85105896 C-157.03610825 202.71360794 -157.38195465 203.57615692 -157.73828125 204.46484375 C-158.48386891 206.33653081 -159.22930667 208.20827758 -159.97460938 210.08007812 C-161.13780491 212.99623443 -162.3022385 215.91187764 -163.46948242 218.82641602 C-169.12028124 232.94679056 -174.42137856 247.02150337 -178.5 261.6875 C-184.99551647 284.08142005 -184.99551647 284.08142005 -195.3203125 290.42578125 C-197.8373493 291.76320362 -200.36727468 292.90935658 -203 294 C-204.10408203 294.48146484 -204.10408203 294.48146484 -205.23046875 294.97265625 C-215.92603354 298.93056749 -230.61258723 298.74207974 -241 294 C-245.75658429 291.62170785 -247.92726904 289.06083478 -250.3359375 284.48828125 C-252.39337465 276.77894324 -250.38605357 269.3383869 -248.4375 261.8125 C-247.88146931 259.58887711 -247.32684253 257.36490281 -246.7734375 255.140625 C-246.33596191 253.39555664 -246.33596191 253.39555664 -245.88964844 251.61523438 C-244.68156005 246.70596632 -243.55642332 241.7791071 -242.42993164 236.85058594 C-235.33308524 205.85855985 -226.32216301 175.62234842 -216.17504883 145.51025391 C-215.67378551 144.02122798 -215.1727225 142.5321346 -214.671875 141.04296875 C-214.43168137 140.32880798 -214.19148773 139.61464722 -213.9440155 138.87884521 C-212.44592416 134.400501 -211.02829136 129.90960671 -209.74707031 125.36450195 C-208.87139724 122.59296808 -207.85088719 119.88404292 -206.82025146 117.16694641 C-206.01396698 115.03689807 -205.22387102 112.90161637 -204.43945312 110.76342773 C-204.17201294 110.03487076 -203.90457275 109.30631378 -203.62902832 108.55567932 C-203.34926147 107.79351608 -203.06949463 107.03135284 -202.78125 106.24609375 C-200.3077377 99.51985796 -197.80822268 92.80398673 -195.28125 86.09765625 C-194.9706665 85.2728476 -194.66008301 84.44803894 -194.34008789 83.59823608 C-193.07890078 80.2499276 -191.81722349 76.90181028 -190.55224609 73.55493164 C-184.96632596 58.7690961 -179.53941821 43.92686199 -174.67660522 28.88525391 C-170.6966071 17.79561589 -157.81677124 9.62042942 -147.6875 4.625 C-135.08715043 -0.73814758 -120.41752028 -5.07286284 -107.078125 -0.05859375 C-103.03903504 1.9989126 -99.0563103 4.88737941 -97 9 C-96.05498254 15.9141784 -96.99371647 21.83313204 -99.58203125 28.26171875 C-100.13371604 29.68033529 -100.68539212 31.09895522 -101.23706055 32.51757812 C-101.52688812 33.25250488 -101.8167157 33.98743164 -102.11532593 34.74462891 C-103.29091585 37.74165528 -104.42983566 40.75204812 -105.56950378 43.76287842 C-111.72345135 60.00371613 -117.97260678 76.20610341 -124.625 92.25 C-125.33293701 93.95869263 -125.33293701 93.95869263 -126.05517578 95.7019043 C-128.90843833 102.5285118 -131.89638601 109.28359844 -135 116 C-131.51995488 115.54818719 -128.04116096 115.0873396 -124.5625 114.625 C-123.58861328 114.49867188 -122.61472656 114.37234375 -121.61132812 114.2421875 C-117.12778182 113.64238197 -112.73899478 112.98413943 -108.34375 111.90625 C-103.83644672 110.85112323 -99.54850813 110.76992882 -94.9375 110.875 C-94.16728516 110.88402344 -93.39707031 110.89304687 -92.60351562 110.90234375 C-90.73553757 110.92554845 -88.86772338 110.96140181 -87 111 C-86.86803223 110.15356934 -86.73606445 109.30713867 -86.60009766 108.43505859 C-85.49366709 102.1016664 -83.8898139 95.87116232 -82.375 89.625 C-82.19637421 88.88836121 -82.01774841 88.15172241 -81.83370972 87.39276123 C-78.60794156 74.14061756 -75.0776373 61.01851174 -71 48 C-70.64260742 46.85144531 -70.28521484 45.70289063 -69.91699219 44.51953125 C-68.77558515 40.88184459 -67.61105245 37.2524336 -66.4375 33.625 C-66.0856665 32.51334473 -65.73383301 31.40168945 -65.37133789 30.25634766 C-61.34122424 18.05583361 -55.75280845 7.96371388 -44.29296875 1.46484375 C-31.63499989 -4.60744061 -12.42995061 -8.48874676 0 0 Z " fill="#F06262" transform="translate(1195,34)"/>
<path d="M0 0 C2.48842267 3.53195476 2.47712518 5.51008791 1.9375 9.75 C1.43065674 10.62398437 1.43065674 10.62398437 0.91357422 11.515625 C-0.48663523 14.72090687 -0.21459891 17.45340414 -0.1171875 20.9375 C-0.09185788 22.37368763 -0.06713878 23.80988614 -0.04296875 25.24609375 C0.00622676 27.4861943 0.06176652 29.72570959 0.12939453 31.96533203 C0.49523201 44.91367421 -1.81697835 55.1539578 -7.9375 66.625 C-13.7239269 77.87100542 -18.39148 89.38739363 -22.51953125 101.328125 C-24.01275196 105.63872546 -25.59371513 109.91328025 -27.1875 114.1875 C-30.52083109 123.17860887 -33.73973076 132.20999936 -36.9375 141.25 C-37.19881714 141.98824005 -37.46013428 142.7264801 -37.72937012 143.48709106 C-40.71654102 151.93767663 -43.63088861 160.40312282 -46.3984375 168.92871094 C-53.690342 191.35954123 -61.95695226 213.67039205 -72.0625 235 C-72.48257324 235.89106445 -72.90264648 236.78212891 -73.33544922 237.70019531 C-78.00033896 247.2156051 -82.59234374 253.26092109 -92.125 258.125 C-92.91455078 258.54910156 -93.70410156 258.97320312 -94.51757812 259.41015625 C-96.68254588 260.56069234 -98.86587014 261.66152073 -101.0625 262.75 C-101.85785156 263.17023438 -102.65320313 263.59046875 -103.47265625 264.0234375 C-107.74540977 265.22212853 -112.02433197 265.0367764 -116.4375 265 C-117.35789062 265.00773437 -118.27828125 265.01546875 -119.2265625 265.0234375 C-125.79825674 265.00466123 -131.65860518 264.98218805 -136.6875 260.3125 C-147.5483472 245.57023527 -149.41883278 225.87982769 -152.125 208.375 C-152.79902743 204.07482693 -153.47813759 199.77547502 -154.16015625 195.4765625 C-154.32238678 194.45234192 -154.48461731 193.42812134 -154.65176392 192.37286377 C-156.16485398 179.20336634 -156.16485398 179.20336634 -160.0625 166.75 C-160.44994385 167.96880859 -160.8373877 169.18761719 -161.23657227 170.44335938 C-162.70220933 175.04592428 -164.1792449 179.64476905 -165.65942383 184.24267578 C-166.29363288 186.21794433 -166.92491138 188.19415668 -167.55297852 190.17138672 C-173.85702316 210.00422309 -180.99914298 229.45438239 -193.3828125 246.40625 C-195.03633302 248.71348793 -196.51059841 251.08475418 -198 253.5 C-203.97862919 262.35895836 -213.81194956 267.29867844 -224.0625 269.75 C-232.40207927 270.9027593 -241.61561519 270.98450313 -249.0625 266.75 C-252.33264679 263.80686789 -253.00127216 262.47248855 -253.375 258.0625 C-253.0625 254.75 -253.0625 254.75 -252.0625 252.75 C-251.76631164 250.61275595 -251.47591567 248.47455115 -251.21459961 246.33276367 C-248.40083673 223.37965987 -243.47849489 200.87785932 -238 178.4375 C-237.79253143 177.5866684 -237.58506287 176.73583679 -237.37130737 175.85922241 C-234.64490396 164.72419699 -231.71325091 153.65881012 -228.59286499 142.62789917 C-227.90150211 140.17994389 -227.22255333 137.72859118 -226.54296875 135.27734375 C-223.27076204 123.61030245 -219.66630754 112.06785765 -215.92578125 100.54296875 C-214.84284401 97.20153385 -213.78168427 93.85879026 -212.79296875 90.48828125 C-204.23375925 61.54424064 -191.15017186 24.84871412 -163.1875 9.25 C-156.00745055 5.94172405 -150.44556549 5.40923427 -142.8828125 7.72265625 C-135.79536267 10.69453314 -133.28949687 13.39510251 -130.36181641 20.40795898 C-129.93304199 21.51083252 -129.50426758 22.61370605 -129.0625 23.75 C-128.82537292 24.35852814 -128.58824585 24.96705627 -128.34393311 25.59402466 C-126.754044 29.69990971 -125.22455848 33.82586147 -123.72314453 37.96484375 C-122.94007838 40.11791066 -122.14424539 42.26596798 -121.34765625 44.4140625 C-116.03064696 58.8984871 -113.39673849 73.31364001 -111.375 88.5625 C-111.14834027 90.23770523 -110.92113022 91.9128361 -110.69335938 93.58789062 C-110.14340767 97.64109995 -109.60085624 101.69523496 -109.0625 105.75 C-106.81745432 102.38243148 -105.24306175 98.86629319 -103.61328125 95.1796875 C-103.27757614 94.42519318 -102.94187103 93.67069885 -102.59599304 92.89334106 C-101.88271085 91.28838133 -101.17081832 89.68280338 -100.46020508 88.07666016 C-99.39975546 85.68092674 -98.33405401 83.28758698 -97.26757812 80.89453125 C-88.30586321 60.99545365 -88.30586321 60.99545365 -81.0625 40.4375 C-75.34734696 22.61694686 -64.64954857 10.3636977 -48.0625 1.75 C-33.40335021 -4.95668902 -14.16616093 -10.4077917 0 0 Z " fill="#F06262" transform="translate(660.0625,49.25)"/>
<path d="M0 0 C1.01989517 0.00223572 1.01989517 0.00223572 2.06039429 0.0045166 C12.58712544 0.04596712 22.61107782 0.55992691 32.8125 3.3125 C33.70582031 3.54453125 34.59914063 3.7765625 35.51953125 4.015625 C47.06233786 7.81971635 59.7626022 17.81557299 65.95703125 28.23828125 C67.81740906 32.74906033 67.52155868 37.90085133 66.16015625 42.53125 C63.29990204 48.91464995 58.24021215 53.57945704 51.8125 56.3125 C48.5625 56.4375 48.5625 56.4375 45.8125 56.3125 C45.84730469 56.89257812 45.88210938 57.47265625 45.91796875 58.0703125 C46.09819118 63.27101687 45.99541747 66.972158 42.8125 71.3125 C31.38715827 81.72051678 16.02375092 81.8854735 1.5 81.875 C-13.70804394 81.26423108 -13.70804394 81.26423108 -27.30859375 86.9609375 C-27.74300781 87.53070313 -28.17742187 88.10046875 -28.625 88.6875 C-29.30369141 89.53441406 -29.30369141 89.53441406 -29.99609375 90.3984375 C-34.10279869 96.99609462 -33.85690405 103.75166709 -33.1875 111.3125 C-30.63160857 121.29341778 -20.71363098 127.7762731 -13.12109375 133.89453125 C2.10873385 146.44747837 18.192085 161.64865602 20.8125 182.3125 C23.16106829 207.43147979 14.83747831 231.91644157 -0.875 251.625 C-2.29078542 253.20720231 -3.72639694 254.77204865 -5.1875 256.3125 C-6.06535156 257.32376953 -6.06535156 257.32376953 -6.9609375 258.35546875 C-20.01078974 272.63052545 -39.84382954 282.58891091 -58.23583984 287.76123047 C-59.52754078 288.1260867 -60.81462395 288.50774427 -62.09619141 288.90673828 C-73.85299741 292.49868776 -85.68403641 292.73417994 -97.875 292.8125 C-98.65933411 292.82294342 -99.44366821 292.83338684 -100.25177002 292.84414673 C-120.52317847 293.05462879 -141.13199672 288.27274294 -156.515625 274.1796875 C-164.97504784 265.18763433 -167.59580342 256.1284444 -167.45703125 243.9921875 C-166.91018995 236.52661494 -164.95838727 230.51821851 -159.4375 225.3125 C-151.6017627 219.31708265 -143.93433917 218.23701775 -134.1875 219.3125 C-127.88570828 220.27735606 -121.64901867 221.56778252 -115.40722656 222.85668945 C-99.89783871 226.04147026 -86.48981118 225.10764568 -72.1875 218.3125 C-70.55554688 217.54099609 -70.55554688 217.54099609 -68.890625 216.75390625 C-61.9583032 213.2503181 -61.9583032 213.2503181 -57.1875 207.3125 C-55.89249839 202.94186956 -55.823808 201.06061704 -57.83203125 196.9296875 C-60.02248187 193.30010024 -62.70049758 190.63427993 -65.875 187.8125 C-66.40464355 187.33893066 -66.93428711 186.86536133 -67.47998047 186.37744141 C-71.18424355 183.09805607 -75.02598036 180.03788916 -78.97265625 177.0546875 C-82.39336095 174.36397446 -85.57842233 171.4281991 -88.78515625 168.48828125 C-90.87585649 166.59475274 -93.01456029 164.79693807 -95.1875 163 C-107.74272054 151.91293025 -118.47439838 135.78617427 -120.4855957 118.79394531 C-120.62506284 116.18754323 -120.65497705 113.60990681 -120.625 111 C-120.61742676 110.05431152 -120.60985352 109.10862305 -120.60205078 108.13427734 C-119.96590889 80.1486775 -110.11956287 54.98268175 -90.1875 35.3125 C-89.45917969 34.58546875 -88.73085938 33.8584375 -87.98046875 33.109375 C-73.86126001 19.80221723 -55.41477041 11.53749132 -37.25 5.375 C-36.42298584 5.09253418 -35.59597168 4.81006836 -34.74389648 4.51904297 C-23.25282604 0.79708172 -12.03262596 -0.05029929 0 0 Z " fill="#F06262" transform="translate(920.1875,32.6875)"/>
<path d="M0 0 C0.7211499 0.0616333 1.4422998 0.1232666 2.18530273 0.18676758 C8.61536935 0.90536502 14.18706568 3.00448846 18.75 7.6875 C23.27497999 14.82304537 23.15588318 22.07512925 22.375 30.25 C20.21841596 38.46234906 15.98002018 44.97659875 10.375 51.25 C9.77945313 51.94996094 9.18390625 52.64992187 8.5703125 53.37109375 C3.35990016 59.08957534 -2.5794015 62.198527 -9.625 65.25 C-10.41777344 65.59675781 -11.21054687 65.94351563 -12.02734375 66.30078125 C-15.29271738 67.49399297 -18.62098621 68.27280344 -22 69.0625 C-38.7369377 73.15762573 -51.23581433 76.86980674 -60.625 92.25 C-68.58383771 104.87881527 -68.58383771 104.87881527 -72.25 119.0625 C-72.32476562 120.03832031 -72.39953125 121.01414062 -72.4765625 122.01953125 C-72.55003906 123.12361328 -72.55003906 123.12361328 -72.625 124.25 C-69.23700253 125.94399874 -65.41166466 125.44033557 -61.6875 125.4375 C-60.82229736 125.43814453 -59.95709473 125.43878906 -59.06567383 125.43945312 C-53.63560254 125.39466483 -48.634501 124.87022 -43.32421875 123.703125 C-36.96938014 122.63632141 -29.11114944 121.59256704 -23.625 125.25 C-21.7744518 135.89065215 -29.63452468 146.67696994 -35.375 155.11328125 C-45.0632092 168.61958679 -58.32260885 172.82801713 -74.12548828 175.85595703 C-79.30305129 176.67218937 -84.40092833 176.68614699 -89.625 176.25 C-89.86863281 176.91515625 -90.11226563 177.5803125 -90.36328125 178.265625 C-91.62733531 181.25552376 -93.087204 184.02861266 -94.64648438 186.87084961 C-104.79418677 205.08021044 -104.79418677 205.08021044 -108.625 225.25 C-90.51118 227.66805464 -71.53992752 229.17595313 -53.4921875 225.58984375 C-49.0960783 225.06877904 -45.11015039 225.39017609 -41.25 227.625 C-37.61048705 231.26451295 -38.32653273 236.60656023 -38.1015625 241.4375 C-37.57631939 244.5372954 -37.08469331 245.39195829 -34.625 247.25 C-32.97894174 248.28357147 -31.31536558 249.29060332 -29.625 250.25 C-30.01706873 260.83585578 -35.77283028 268.11325347 -43.19091797 275.34155273 C-66.31069306 296.77159948 -106.07524163 296.32480808 -135.625 295.25 C-151.99788542 294.11266498 -169.50435118 292.30609998 -181.0625 279.5625 C-185.00308652 273.73043195 -183.86930939 266.52182928 -183.875 259.75 C-183.87567474 259.0347113 -183.87634949 258.31942261 -183.87704468 257.5824585 C-183.82896739 225.30417436 -177.52351893 194.17151591 -168.625 163.25 C-168.30934082 162.14519287 -168.30934082 162.14519287 -167.98730469 161.01806641 C-166.19403499 154.7918717 -164.08105946 148.81049152 -161.65356445 142.80712891 C-160.75168516 140.5649538 -159.87508298 138.31579388 -159.01171875 136.05859375 C-150.66012436 114.45338216 -140.75139682 93.37559463 -130.59423828 72.56665039 C-126.02130067 63.13509186 -125.08283291 54.96602401 -124.50195312 44.546875 C-123.55450809 30.30959282 -123.55450809 30.30959282 -118.42578125 24.953125 C-115.02170219 22.88314108 -111.5326882 21.38358212 -107.8125 20 C-107.03696777 19.70625488 -106.26143555 19.41250977 -105.46240234 19.10986328 C-82.97377378 10.70805167 -60.36941038 3.92473018 -36.625 0.25 C-35.82578125 0.11722656 -35.0265625 -0.01554687 -34.203125 -0.15234375 C-23.00440587 -1.73665867 -11.22073188 -1.09610961 0 0 Z " fill="#EF6262" transform="translate(417.625,34.75)"/>
<path d="M0 0 C0.86818359 0.58974609 0.86818359 0.58974609 1.75390625 1.19140625 C2.60662109 1.73474609 2.60662109 1.73474609 3.4765625 2.2890625 C8.62704788 6.0222153 10.80589879 11.34738388 12.75390625 17.19140625 C14.72401072 31.82646806 7.82360168 47.26070948 3.1784668 60.84008789 C0.16153444 69.74673118 -2.51993398 78.73598157 -5.17785645 87.75418091 C-10.67772609 106.40074672 -16.7116402 124.8131423 -23.14060974 143.15904236 C-24.51118839 147.07068281 -25.85811122 150.98803287 -27.1640625 154.921875 C-41.2698998 197.15461623 -61.12071208 237.88591532 -92.24609375 270.19140625 C-92.90738281 270.90425781 -93.56867188 271.61710937 -94.25 272.3515625 C-108.10053869 286.8960739 -125.75237854 296.8244174 -144.24609375 304.19140625 C-144.91914551 304.4637207 -145.59219727 304.73603516 -146.28564453 305.01660156 C-146.96481934 305.28311523 -147.64399414 305.54962891 -148.34375 305.82421875 C-148.94840088 306.06285645 -149.55305176 306.30149414 -150.17602539 306.54736328 C-167.67396539 311.99135028 -192.29902988 309.82108366 -208.74609375 302.00390625 C-218.39302372 296.77259473 -222.62700391 290.92273918 -226.24609375 280.625 C-231.18860727 263.65441648 -230.62495168 247.09553622 -222.16796875 231.49609375 C-216.89344689 222.4264891 -210.0965493 214.11098102 -199.78515625 210.66015625 C-196.23764822 210.00523169 -192.71809901 209.86786205 -189.12109375 209.81640625 C-188.43982422 209.8023877 -187.75855469 209.78836914 -187.05664062 209.77392578 C-182.3918029 209.81821222 -179.20447014 210.74875573 -175.24609375 213.19140625 C-170.82718215 218.08803802 -170.11320653 221.00752317 -170.21875 227.4296875 C-170.23140158 228.90429448 -170.24376214 230.37890399 -170.25585938 231.85351562 C-170.2806312 234.17740733 -170.30855429 236.50116809 -170.34204102 238.82495117 C-170.37235848 241.06820483 -170.39005747 243.3112935 -170.40625 245.5546875 C-170.41970963 246.24444168 -170.43316925 246.93419586 -170.44703674 247.64485168 C-170.46756584 251.6176134 -169.99666981 254.61470522 -168.24609375 258.19140625 C-161.11820436 257.16948662 -155.41319486 253.02264982 -150.87695312 247.53515625 C-147.28605613 242.65616297 -144.25928275 237.43930996 -141.24609375 232.19140625 C-140.48425781 230.88357178 -140.48425781 230.88357178 -139.70703125 229.54931641 C-130.15791792 213.02358794 -122.5209737 195.79764234 -115.24609375 178.19140625 C-114.75915039 177.01674805 -114.27220703 175.84208984 -113.77050781 174.63183594 C-107.25428263 158.97109562 -107.25428263 158.97109562 -102.0625 142.83984375 C-101.24609375 140.19140625 -101.24609375 140.19140625 -99.86328125 137.10546875 C-97.61336444 131.98247426 -96.27694587 126.57818856 -94.80859375 121.19140625 C-94.49929932 120.07072754 -94.19000488 118.95004883 -93.87133789 117.79541016 C-92.99033069 114.59565863 -92.11646234 111.39406584 -91.24609375 108.19140625 C-90.94203613 107.07523926 -90.94203613 107.07523926 -90.63183594 105.93652344 C-89.47960614 101.69432145 -88.35655345 97.44469514 -87.24609375 93.19140625 C-87.02066895 92.32805664 -86.79524414 91.46470703 -86.56298828 90.57519531 C-85.7902728 87.61404099 -85.01817668 84.65272556 -84.24609375 81.69140625 C-83.47679646 78.74330823 -82.70745959 75.79522057 -81.93798828 72.84716797 C-81.33879498 70.54722982 -80.74315364 68.24641078 -80.1484375 65.9453125 C-78.29004829 58.83528089 -76.25468729 51.81032797 -73.99584961 44.81860352 C-72.95150019 41.56513496 -72.01749425 38.3191332 -71.23046875 34.99609375 C-67.84194703 21.89918836 -58.25304361 13.04173308 -46.99609375 6.2734375 C-33.65385512 -1.36121008 -14.67380757 -8.24145357 0 0 Z " fill="#EF6262" transform="translate(257.24609375,29.80859375)"/>
<path d="M0 0 C4.48370006 3.35541668 8.46883472 7.80738706 9.78515625 13.3359375 C10.24905413 19.54992606 9.4282616 24.70402165 7.41015625 30.55859375 C7.14237869 31.37138794 6.87460114 32.18418213 6.59870911 33.02160645 C5.67357356 35.81828148 4.72914793 38.60807538 3.78515625 41.3984375 C3.09865556 43.46110884 2.41340931 45.524198 1.72924805 47.58764648 C0.09892331 52.4947579 -1.54067325 57.3986954 -3.18603516 62.30078125 C-6.78868026 73.03625605 -10.36611504 83.78012755 -13.9453125 94.5234375 C-15.34690634 98.73042032 -16.74857997 102.93737653 -18.15039062 107.14428711 C-18.50218824 108.20007682 -18.85398586 109.25586653 -19.21644402 110.34364986 C-21.64084222 117.61792626 -24.07037724 124.89047373 -26.50195312 132.16235352 C-33.36116476 152.68361219 -40.1735132 173.21779667 -46.82072449 193.80885315 C-51.10412736 207.06880068 -55.52982431 220.27915376 -60.00598431 233.47516918 C-62.4137305 240.6109404 -64.46886836 247.7747946 -66.28686523 255.08325195 C-69.56654308 266.57894992 -75.83409403 274.49343862 -86.21484375 280.3359375 C-95.88393413 284.90698852 -104.98423891 285.7828197 -115.58984375 285.8359375 C-117.22953125 285.84548462 -117.22953125 285.84548462 -118.90234375 285.85522461 C-129.62849859 285.68640511 -138.80100839 283.74977286 -146.58984375 275.9609375 C-153.38593528 260.80042563 -143.52028923 241.53397089 -138.10766602 227.18920898 C-135.2562635 219.59036427 -132.65521522 211.91001245 -130.08984375 204.2109375 C-129.87224396 203.55796692 -129.65464417 202.90499634 -129.43045044 202.23223877 C-126.73971628 194.13701921 -124.16635462 186.02119697 -121.82666016 177.81738281 C-120.34653082 172.66240456 -118.58461873 167.65051516 -116.73828125 162.6171875 C-114.14527156 155.44210908 -111.81402467 148.17298653 -109.42480469 140.92822266 C-107.69199382 135.69140023 -105.93995543 130.47824577 -103.96630859 125.32714844 C-103.07988702 122.97833286 -102.24409637 120.61405047 -101.41015625 118.24609375 C-72.8602834 37.42229765 -72.8602834 37.42229765 -57.21484375 27.3359375 C-53.63646645 25.67024726 -49.97369937 24.2313526 -46.24291992 22.94458008 C-40.02495523 20.6967379 -36.93778629 17.82436438 -33.94921875 11.7734375 C-33.624375 10.9690625 -33.29953125 10.1646875 -32.96484375 9.3359375 C-30.33811534 3.80729961 -26.66713848 0.97917878 -21.21484375 -1.6640625 C-14.24974705 -3.92527626 -6.36680916 -3.68673549 0 0 Z " fill="#F06262" transform="translate(777.21484375,35.6640625)"/>
</svg>
