<?xml version="1.0" standalone="no"?>
<!DOCTYPE svg PUBLIC "-//W3C//DTD SVG 20010904//EN"
 "http://www.w3.org/TR/2001/REC-SVG-20010904/DTD/svg10.dtd">
<svg version="1.0" xmlns="http://www.w3.org/2000/svg"
 width="207.000000pt" height="193.000000pt" viewBox="0 0 207.000000 193.000000"
 preserveAspectRatio="xMidYMid meet">
<metadata>
Created by potrace 1.16, written by Peter Selinger 2001-2019
</metadata>
<g transform="translate(0.000000,193.000000) scale(0.100000,-0.100000)"
fill="#000000" stroke="none">
<path d="M718 1924 c-2 -1 -18 -5 -35 -9 -18 -3 -45 -10 -60 -17 -15 -6 -30
-12 -33 -13 -3 -1 -23 -9 -44 -18 -22 -10 -46 -15 -54 -12 -12 4 -12 3 -3 -9
10 -12 8 -14 -13 -12 -16 2 -23 -1 -19 -10 2 -7 -6 -15 -18 -19 -24 -8 -181
-160 -220 -213 -13 -19 -30 -40 -37 -48 -7 -8 -11 -14 -7 -14 3 0 -3 -13 -14
-29 -31 -43 -83 -160 -76 -171 3 -6 1 -10 -6 -10 -7 0 -9 -3 -6 -6 3 -4 2 -15
-4 -26 -12 -23 -22 -80 -22 -130 0 -20 -4 -35 -9 -32 -5 3 -8 -71 -7 -165 1
-94 5 -168 9 -166 3 2 7 -13 7 -33 3 -75 6 -92 15 -92 5 0 7 -4 3 -10 -3 -5 1
-25 9 -44 8 -19 12 -37 9 -40 -3 -2 -1 -11 3 -18 5 -7 9 -17 10 -23 1 -5 16
-40 33 -78 34 -75 36 -81 19 -71 -7 4 -8 3 -4 -5 4 -6 11 -9 15 -6 5 2 21 -14
36 -38 51 -76 159 -187 184 -187 5 0 11 -6 14 -13 7 -20 142 -83 232 -109 72
-21 100 -23 280 -22 209 0 302 12 445 56 122 37 312 125 351 161 10 10 19 14
19 10 0 -4 4 -3 8 2 4 6 23 22 42 35 48 33 178 169 193 202 6 16 15 28 18 28
3 0 18 28 33 63 15 34 32 71 39 82 17 29 23 386 7 439 -7 22 -14 51 -17 65 -9
54 -64 168 -121 253 -13 21 -22 44 -18 53 3 9 2 14 -3 11 -4 -3 -25 16 -47 42
-21 26 -66 75 -99 110 -33 35 -58 66 -57 69 2 2 0 8 -4 11 -4 4 -4 1 0 -5 12
-21 -9 -15 -37 11 -15 14 -36 27 -47 31 -11 3 -20 11 -20 16 0 5 -9 9 -20 9
-11 0 -20 4 -20 9 0 5 -25 19 -55 32 -30 12 -52 25 -50 29 2 4 -7 5 -20 2 -14
-2 -31 1 -38 7 -8 6 -29 13 -48 15 -48 6 -70 16 -62 29 3 5 1 7 -5 3 -6 -3
-28 0 -49 8 -70 27 -162 37 -333 35 -93 -1 -171 -3 -172 -5z m199 -51 c-22 -6
-220 -104 -227 -112 -3 -3 -21 -15 -40 -25 -19 -11 -40 -25 -46 -30 -6 -6 -22
-18 -34 -26 -12 -8 -28 -21 -36 -27 -7 -7 -16 -13 -21 -13 -4 0 -14 -9 -21
-21 -10 -15 -16 -18 -26 -10 -9 8 -18 5 -34 -12 -12 -13 -19 -27 -15 -30 9
-10 -39 -58 -53 -53 -7 2 -22 -7 -35 -21 -13 -15 -18 -23 -11 -19 19 11 15
-17 -5 -35 -10 -9 -31 -33 -47 -52 -16 -20 -33 -34 -39 -30 -6 3 -7 1 -3 -5 8
-13 -26 -77 -42 -77 -5 0 -14 -4 -19 -9 -5 -5 -3 -6 4 -2 16 9 16 1 2 -26 -15
-28 -60 -148 -65 -173 -6 -34 -11 -49 -23 -75 -11 -24 -11 -24 -4 5 4 17 9 50
10 75 6 70 10 102 19 145 4 22 8 42 9 45 0 3 4 10 8 17 4 6 4 18 1 27 -3 9 -1
16 6 16 6 0 8 5 5 10 -3 6 -1 10 5 10 6 0 9 4 5 9 -3 5 -1 12 5 16 6 4 8 11 5
16 -4 5 -1 9 5 9 6 0 8 5 5 10 -3 5 -1 10 5 10 6 0 9 4 6 9 -3 5 3 19 13 32
10 13 21 34 25 47 4 12 11 22 16 22 5 0 12 9 15 20 4 12 44 58 89 103 77 77
161 137 231 165 108 42 99 39 140 47 17 3 43 9 60 13 16 5 61 9 99 9 39 1 63
-1 53 -4z m361 -74 c2 -5 11 -9 21 -9 9 0 38 -13 64 -30 26 -16 47 -26 47 -22
0 4 4 2 8 -3 4 -6 18 -16 32 -23 46 -24 240 -205 240 -224 0 -7 -17 4 -37 23
l-38 34 34 -37 c19 -21 37 -35 41 -33 3 2 10 1 16 -3 20 -13 113 -157 119
-184 4 -16 11 -28 16 -28 5 0 9 -8 9 -18 0 -10 4 -22 9 -27 11 -12 44 -143 43
-168 0 -9 3 -15 8 -12 6 4 7 -13 3 -41 -4 -34 -3 -45 5 -40 9 5 12 -6 12 -36
0 -73 -12 -178 -20 -173 -4 3 -8 -5 -8 -18 0 -63 -25 -133 -43 -121 -7 4 -7
-1 0 -15 8 -15 9 -21 1 -21 -6 0 -8 -5 -5 -10 3 -6 1 -10 -5 -10 -6 0 -9 -4
-6 -9 7 -10 -28 -53 -37 -45 -3 3 -8 0 -13 -7 -4 -8 -3 -10 4 -5 7 4 12 1 12
-7 0 -18 -57 -97 -71 -97 -5 0 -7 5 -4 10 10 17 -1 11 -20 -10 -17 -19 -17
-19 4 -15 11 2 21 3 21 1 0 -1 -18 -19 -39 -40 -35 -34 -49 -33 -28 2 13 20 2
14 -24 -15 -13 -14 -18 -23 -11 -19 6 4 12 3 12 -3 0 -13 -87 -75 -122 -87
-10 -4 -18 -10 -18 -15 0 -5 -9 -9 -20 -9 -11 0 -20 -4 -20 -9 0 -5 -20 -14
-44 -20 -25 -6 -47 -15 -51 -21 -3 -5 -12 -7 -20 -3 -8 3 -15 1 -15 -4 0 -9
-6 -11 -50 -15 -11 -1 -20 -5 -20 -8 0 -3 -8 -6 -17 -7 -10 -1 -47 -6 -83 -12
-113 -19 -243 -24 -330 -12 -118 16 -137 19 -200 38 -30 9 -58 17 -62 17 -4 1
-13 7 -19 14 -7 6 -20 12 -30 12 -9 0 -31 18 -50 41 -19 23 -43 50 -53 60 -11
10 -16 19 -11 19 5 0 -1 7 -13 16 -12 8 -22 22 -22 30 0 8 -5 14 -11 14 -5 0
-8 4 -4 9 3 5 -1 16 -9 24 -8 8 -12 17 -9 21 4 3 1 6 -6 6 -7 0 -9 5 -6 10 3
6 1 10 -5 10 -6 0 -8 5 -5 10 3 6 1 10 -5 10 -6 0 -8 5 -5 10 3 6 1 10 -5 10
-6 0 -9 4 -6 9 3 5 -1 23 -10 40 -14 28 -21 56 -26 99 -1 6 -5 12 -9 12 -4 0
-7 10 -7 23 0 27 -7 69 -13 82 -2 6 -4 33 -4 60 1 28 -3 53 -7 56 -5 3 -4 27
2 54 6 26 10 64 10 84 -2 40 4 72 25 143 7 25 11 49 8 52 -4 3 -1 6 5 6 7 0
12 7 12 17 0 15 49 131 70 163 5 8 17 30 26 48 9 18 26 39 38 47 11 8 16 15
12 15 -12 0 119 128 165 162 20 15 39 24 43 21 3 -4 6 -1 6 5 0 7 6 12 14 12
8 0 16 3 18 8 9 22 263 127 301 124 9 0 17 3 17 7 0 4 26 9 57 10 31 1 59 4
61 6 8 8 157 -8 160 -16z m440 -221 c33 -35 76 -83 96 -108 20 -25 40 -50 45
-56 6 -7 8 -14 5 -17 -2 -2 2 -10 11 -17 8 -7 15 -18 15 -25 0 -6 11 -25 25
-41 14 -16 23 -35 20 -41 -2 -7 -1 -13 4 -13 5 0 14 -20 21 -45 7 -25 16 -45
20 -45 8 0 20 -50 21 -82 0 -10 4 -18 9 -18 5 0 6 -7 3 -17 -4 -9 -2 -14 3
-11 10 7 13 -31 14 -172 0 -111 -8 -182 -22 -191 -6 -4 -7 -12 -4 -18 4 -6 2
-11 -3 -11 -6 0 -11 -9 -11 -21 0 -24 -24 -51 -36 -41 -5 4 -2 -1 5 -10 9 -12
10 -18 2 -18 -6 0 -11 -9 -11 -20 0 -12 -11 -32 -25 -46 -14 -14 -25 -27 -25
-30 0 -13 -111 -126 -118 -119 -2 2 3 11 12 20 9 9 16 19 16 23 0 4 12 21 26
37 25 28 70 115 65 124 -2 2 2 7 9 11 6 4 12 17 13 28 1 12 5 22 10 22 4 0 7
6 6 12 -1 7 0 20 4 28 36 98 47 293 21 415 -24 113 -36 155 -45 155 -5 0 -16
25 -24 55 -9 30 -21 55 -26 55 -5 0 -9 8 -9 18 0 15 -71 129 -88 142 -4 3 -23
25 -42 50 -18 25 -47 57 -62 73 -16 15 -25 27 -20 27 5 0 37 -28 70 -62z
m-1447 -284 c-12 -19 -21 -46 -21 -60 0 -13 -5 -24 -10 -24 -6 0 -9 -3 -8 -7
1 -5 -4 -20 -10 -35 -29 -70 -50 -253 -43 -378 8 -141 106 -460 142 -460 6 0
7 -4 4 -10 -3 -5 -3 -10 2 -10 4 0 14 -12 20 -27 l13 -27 -32 30 c-74 67 -115
125 -103 144 3 5 -1 7 -9 4 -11 -4 -14 1 -12 20 3 23 1 24 -12 14 -13 -11 -15
-10 -9 4 3 10 2 20 -3 23 -6 4 -10 15 -10 26 0 13 -4 18 -12 13 -8 -5 -9 -2
-5 9 3 9 2 19 -4 23 -6 3 -8 12 -5 20 3 8 1 14 -5 14 -6 0 -9 7 -5 15 3 8 2
15 -2 15 -8 0 -13 63 -14 165 0 69 4 115 18 185 4 19 8 42 10 50 4 25 10 43
22 73 7 16 12 36 12 46 0 10 6 24 13 30 8 6 24 35 37 66 13 30 27 55 32 55 4
0 8 7 8 15 0 8 5 15 11 15 6 0 2 -16 -10 -36z"/>
<path d="M905 1400 c-190 -8 -255 -44 -290 -163 -23 -77 -22 -499 1 -577 21
-72 72 -123 144 -144 80 -24 500 -24 580 0 72 21 123 72 144 144 24 80 24 500
0 580 -22 73 -72 123 -144 144 -63 17 -242 24 -435 16z m429 -98 c29 -13 50
-31 61 -52 25 -49 38 -199 32 -378 -9 -248 -27 -274 -200 -294 -52 -6 -163 -8
-255 -5 -248 9 -274 27 -294 200 -6 52 -8 163 -5 255 11 291 31 305 429 297
159 -3 193 -6 232 -23z"/>
<path d="M805 1064 c-13 -14 -15 -41 -13 -186 3 -150 5 -172 21 -182 12 -8 22
-8 35 0 15 10 17 32 20 185 2 155 1 175 -15 186 -22 17 -28 16 -48 -3z"/>
<path d="M982 1068 c-17 -17 -17 -349 0 -366 16 -16 33 -15 52 4 13 12 16 39
16 128 0 104 2 114 23 134 12 11 34 23 48 27 31 8 82 -15 95 -42 5 -10 11 -69
14 -132 4 -94 8 -116 23 -125 12 -8 22 -8 35 0 14 9 17 29 20 125 2 102 0 119
-20 159 -40 78 -125 115 -204 87 -33 -11 -42 -11 -52 0 -16 16 -34 17 -50 1z"/>
</g>
</svg>
