<?xml version="1.0" standalone="no"?>
<!DOCTYPE svg PUBLIC "-//W3C//DTD SVG 20010904//EN"
 "http://www.w3.org/TR/2001/REC-SVG-20010904/DTD/svg10.dtd">
<svg version="1.0" xmlns="http://www.w3.org/2000/svg"
 width="177.000000pt" height="165.000000pt" viewBox="0 0 177.000000 165.000000"
 preserveAspectRatio="xMidYMid meet">
<metadata>
Created by potrace 1.16, written by Peter Selinger 2001-2019
</metadata>
<g transform="translate(0.000000,165.000000) scale(0.100000,-0.100000)"
fill="#000000" stroke="none">
<path d="M607 1644 c-3 -3 -18 -7 -34 -9 -17 -2 -59 -18 -94 -35 -35 -17 -69
-28 -76 -26 -7 3 -10 -1 -7 -9 3 -8 -3 -16 -16 -20 -24 -8 -190 -169 -190
-185 0 -6 -8 -10 -17 -8 -13 2 -17 -3 -15 -16 2 -10 -1 -15 -7 -12 -5 4 -13 1
-17 -5 -4 -8 -3 -9 4 -5 19 12 14 -13 -11 -49 -13 -19 -27 -32 -32 -27 -5 4
-5 2 -2 -4 8 -14 -8 -69 -19 -67 -5 1 -10 -15 -12 -35 -3 -59 -6 -72 -12 -72
-4 0 -7 -6 -7 -12 0 -7 -4 -35 -9 -63 -14 -83 -7 -329 11 -386 9 -28 16 -67
18 -105 1 -23 6 -30 16 -26 9 3 12 1 7 -6 -4 -6 0 -25 9 -43 9 -17 14 -37 11
-45 -3 -8 -2 -13 3 -10 11 7 23 -22 15 -35 -3 -5 0 -8 8 -7 7 2 12 -5 12 -14
-1 -10 2 -16 5 -15 4 1 30 -26 59 -59 28 -34 63 -71 77 -82 16 -13 24 -26 19
-33 -4 -7 -3 -9 4 -5 12 7 84 -32 78 -42 -2 -4 6 -8 17 -9 12 -1 56 -14 97
-30 73 -27 79 -28 280 -28 209 0 245 4 385 46 77 24 261 107 285 130 21 19
109 79 117 79 3 0 -2 -10 -13 -22 -17 -21 -16 -21 9 1 27 24 36 38 17 26 -23
-14 -7 14 24 43 19 17 36 36 38 42 2 6 11 12 20 14 10 1 21 6 25 11 4 4 2 5
-5 1 -17 -10 -15 2 7 33 11 14 33 57 50 94 l31 68 0 184 c0 102 -3 185 -7 185
-5 0 -9 13 -10 30 -1 16 -9 43 -18 61 -9 17 -14 37 -11 45 4 10 2 12 -6 8 -8
-5 -9 -2 -5 10 4 9 3 15 -2 12 -11 -7 -23 22 -14 36 3 6 1 8 -5 5 -5 -4 -22
13 -36 37 -29 49 -32 61 -14 50 7 -4 8 -3 4 5 -4 6 -12 8 -18 5 -7 -5 -9 -1
-5 9 3 9 1 19 -5 23 -7 5 -8 2 -4 -7 4 -8 -2 -3 -13 10 -12 12 -18 28 -14 34
3 5 1 7 -5 3 -6 -3 -18 1 -26 10 -22 21 -21 40 2 23 9 -7 -5 10 -33 39 -46 49
-73 70 -45 37 14 -16 3 -20 -19 -6 -7 5 -11 13 -7 19 3 5 -2 16 -12 23 -15 13
-16 12 -3 -3 18 -24 0 -23 -25 0 -45 43 -212 122 -256 122 -9 0 -41 10 -70 23
-82 36 -163 48 -326 46 -83 0 -153 -3 -155 -5z m158 -52 c-74 -32 -160 -76
-197 -100 -21 -13 -42 -21 -49 -16 -8 4 -9 3 -5 -5 7 -11 -29 -50 -47 -51 -4
0 -21 -13 -39 -30 -32 -31 -60 -42 -38 -15 31 37 -1 9 -65 -57 -39 -39 -62
-66 -52 -59 25 19 20 1 -8 -31 -24 -28 -42 -38 -29 -16 4 7 3 8 -5 4 -6 -4 -9
-12 -5 -17 7 -12 -77 -139 -88 -133 -4 3 -5 -3 -1 -12 5 -13 3 -15 -7 -9 -8 5
-11 4 -6 -3 7 -12 -34 -142 -45 -142 -7 0 -4 41 6 105 4 22 6 48 6 58 0 9 4
17 9 17 5 0 8 8 8 18 0 9 5 31 12 47 7 17 14 32 15 35 6 24 19 56 24 60 3 3
15 20 25 39 26 46 41 65 108 130 71 71 109 101 125 101 7 0 13 4 13 9 0 13
169 70 230 77 30 4 57 8 59 10 2 2 23 4 45 3 l41 0 -40 -17z m353 -63 c28 -12
41 -23 36 -30 -4 -8 -3 -9 4 -5 14 9 55 -12 47 -24 -3 -5 0 -12 6 -16 8 -4 9
-3 5 4 -11 18 16 14 44 -5 45 -31 89 -75 87 -86 -1 -6 3 -11 10 -12 15 0 28
-14 28 -28 0 -7 7 -12 15 -12 8 -1 14 -6 13 -13 -2 -6 3 -9 10 -6 16 6 72 -70
62 -85 -4 -7 0 -8 11 -4 14 5 16 2 12 -15 -4 -15 -2 -19 8 -15 8 3 14 -1 14
-10 0 -8 4 -17 9 -19 7 -2 49 -85 56 -110 2 -5 3 -9 5 -10 1 -2 3 -10 5 -18 1
-8 9 -35 16 -60 7 -25 12 -49 10 -54 -1 -4 2 -13 7 -20 14 -18 16 -236 2 -236
-7 0 -9 -8 -5 -20 3 -11 2 -20 -4 -20 -5 0 -8 -9 -6 -21 2 -11 -3 -32 -12 -45
-8 -13 -11 -24 -7 -24 5 0 4 -4 -2 -8 -6 -4 -16 -20 -21 -37 -6 -16 -15 -29
-21 -28 -6 2 -9 -3 -7 -10 6 -16 -36 -89 -54 -95 -9 -3 -11 0 -5 9 7 12 5 12
-9 0 -18 -15 -23 -26 -7 -16 19 12 10 -14 -16 -44 -14 -17 -30 -28 -35 -25 -5
3 -7 10 -4 15 11 17 -2 9 -21 -13 -10 -12 -13 -18 -6 -14 6 4 12 3 12 -3 0
-16 -59 -53 -75 -47 -9 3 -12 0 -8 -10 3 -7 0 -14 -7 -14 -7 0 -24 -9 -39 -19
-15 -11 -40 -23 -57 -27 -16 -4 -41 -13 -56 -20 -15 -8 -39 -15 -53 -16 -14
-1 -25 -5 -25 -9 0 -4 -8 -6 -17 -4 -10 1 -22 0 -28 -3 -11 -7 -33 -10 -85
-13 -19 -1 -39 -4 -44 -7 -9 -5 -149 -3 -201 3 -93 11 -194 35 -220 52 -11 7
-27 13 -35 13 -9 0 -31 16 -48 36 -35 40 -44 68 -12 39 11 -10 20 -16 20 -13
0 2 -12 15 -27 29 -14 13 -23 18 -19 12 4 -7 3 -13 -3 -13 -6 0 -16 10 -22 22
-7 13 -19 29 -26 37 -8 8 -12 22 -10 32 3 10 0 17 -6 16 -10 -2 -36 39 -42 67
-1 6 -7 22 -12 36 -6 14 -9 28 -6 33 2 4 0 7 -5 7 -5 0 -9 6 -10 13 0 6 -4 26
-8 42 -3 17 -6 38 -6 48 0 9 -3 17 -8 17 -4 0 -7 6 -7 13 1 6 -2 46 -7 87 -7
67 -1 132 20 225 3 11 7 37 10 58 4 20 10 37 15 37 5 0 9 9 9 21 0 11 21 62
47 112 37 71 66 110 128 172 44 44 101 91 125 104 25 13 70 37 100 53 56 30
190 81 190 72 0 -3 6 -2 13 3 6 4 35 9 62 11 28 2 52 6 54 8 9 9 107 -10 149
-27z m366 -193 c77 -82 86 -93 86 -106 0 -5 4 -10 8 -10 5 0 14 -10 21 -22 6
-13 20 -36 31 -53 11 -16 25 -41 32 -55 13 -29 12 -26 22 -62 5 -16 11 -28 15
-28 4 0 8 -6 9 -12 1 -17 9 -54 18 -81 29 -89 14 -361 -18 -341 -7 4 -8 2 -4
-4 10 -17 -17 -93 -31 -88 -7 3 -15 0 -19 -6 -4 -7 -3 -8 4 -4 28 17 5 -32
-43 -92 -21 -26 -70 -72 -78 -72 -5 0 11 27 34 60 23 33 45 57 50 55 4 -3 11
0 15 6 4 8 3 9 -4 5 -16 -10 -15 17 0 32 7 7 8 12 4 12 -5 0 -2 10 6 23 28 43
53 168 52 267 0 89 -17 205 -35 241 -5 9 -3 21 4 29 9 10 9 11 0 6 -7 -4 -17
3 -24 16 -7 13 -11 23 -10 23 6 0 -44 100 -51 103 -5 2 -8 8 -8 13 0 6 -19 36
-42 67 -40 52 -61 78 -105 125 -9 9 -13 17 -8 17 4 0 35 -29 69 -64z m-1268
-275 c-17 -44 -33 -78 -36 -76 -3 2 -6 -9 -6 -23 -1 -15 -5 -54 -10 -87 -17
-119 -10 -257 21 -375 9 -36 17 -77 18 -92 1 -14 5 -24 8 -22 3 2 16 -21 28
-51 13 -30 26 -55 30 -55 4 0 15 -15 26 -32 18 -33 18 -33 -1 -18 -39 31 -104
105 -104 120 0 6 -4 10 -9 10 -5 0 -8 11 -7 24 2 19 -1 23 -13 19 -9 -4 -13
-2 -8 2 4 5 1 18 -6 29 -24 36 -38 98 -38 163 0 23 -4 45 -9 48 -12 7 -13 52
-2 59 5 3 10 31 11 63 4 87 5 93 14 93 4 0 6 4 2 9 -3 5 2 29 10 53 9 24 17
48 18 53 8 33 82 165 93 165 0 0 -13 -36 -30 -79z"/>
<path d="M549 1081 l-29 -29 0 -257 0 -257 29 -29 29 -29 337 0 337 0 29 29
29 29 0 257 0 257 -29 29 -29 29 -337 0 -337 0 -29 -29z m641 -65 c0 -2 -53
-37 -117 -77 -65 -40 -127 -79 -139 -86 -18 -11 -34 -4 -164 77 l-144 90 282
0 c155 0 282 -2 282 -4z m-415 -178 c66 -41 125 -77 131 -81 10 -6 36 9 237
135 l77 48 0 -185 0 -185 -305 0 -305 0 0 186 0 186 23 -14 c12 -8 76 -49 142
-90z"/>
</g>
</svg>
