<?xml version="1.0" standalone="no"?>
<!DOCTYPE svg PUBLIC "-//W3C//DTD SVG 20010904//EN"
 "http://www.w3.org/TR/2001/REC-SVG-20010904/DTD/svg10.dtd">
<svg version="1.0" xmlns="http://www.w3.org/2000/svg"
 width="590.000000pt" height="48.000000pt" viewBox="0 0 590.000000 48.000000"
 preserveAspectRatio="xMidYMid meet">
<metadata>
Created by potrace 1.16, written by Peter Selinger 2001-2019
</metadata>
<g transform="translate(0.000000,48.000000) scale(0.100000,-0.100000)"
fill="#000000" stroke="none">
<path d="M2383 468 c-18 -6 -33 -14 -33 -18 0 -4 -16 -11 -35 -14 -19 -4 -35
-11 -35 -16 0 -5 -11 -12 -25 -16 -14 -3 -25 -10 -25 -15 0 -5 -5 -9 -11 -9
-6 0 -26 -12 -44 -26 -20 -15 -39 -23 -46 -18 -7 4 -9 3 -6 -3 3 -5 -3 -16
-14 -24 -12 -8 -30 -22 -41 -31 -12 -10 -25 -18 -30 -18 -5 0 -18 -9 -30 -20
-12 -10 -25 -17 -30 -14 -4 3 -8 1 -8 -4 0 -12 -116 -72 -140 -72 -11 0 -20
-4 -20 -10 0 -6 -30 -10 -70 -10 -38 0 -70 4 -70 9 0 5 -10 11 -22 15 -13 3
-67 48 -120 101 -54 52 -105 95 -113 95 -8 0 -15 5 -15 10 0 6 -13 10 -30 10
-16 0 -30 -4 -30 -9 0 -5 -10 -12 -22 -15 -13 -3 -35 -23 -50 -43 -28 -41 -70
-93 -103 -128 -11 -12 -40 -35 -65 -51 -42 -27 -52 -29 -134 -28 -48 1 -91 6
-95 11 -3 6 -23 13 -43 17 -21 4 -38 11 -38 15 0 5 -12 12 -26 15 -17 5 -24
12 -20 21 3 9 0 12 -9 9 -15 -6 -75 25 -75 38 0 4 -6 8 -13 8 -8 0 -23 8 -35
18 -11 9 -29 23 -41 31 -11 8 -18 18 -15 23 3 4 -2 5 -10 2 -9 -3 -16 -1 -16
5 0 6 -8 11 -18 11 -10 0 -27 7 -38 15 -10 8 -31 15 -46 15 -16 0 -28 5 -28
10 0 6 -16 10 -35 10 -19 0 -35 -4 -35 -10 0 -5 -9 -10 -20 -10 -12 0 -32 -7
-45 -16 -14 -9 -34 -14 -44 -11 -14 3 -18 1 -14 -9 3 -8 -5 -16 -21 -20 -14
-3 -26 -9 -26 -13 0 -3 -17 -17 -37 -31 -44 -30 -98 -82 -113 -109 -5 -11 -10
-39 -10 -62 l0 -42 41 6 c46 6 62 21 54 53 -4 16 5 31 34 55 62 55 84 69 104
69 10 0 15 5 12 10 -3 6 3 10 14 10 11 0 22 4 26 10 3 5 12 7 20 3 8 -3 15 0
15 6 0 6 19 11 45 11 25 0 45 -5 45 -10 0 -6 6 -10 13 -8 15 3 137 -72 137
-84 0 -4 5 -8 11 -8 10 0 88 -56 99 -71 3 -4 18 -11 33 -14 15 -4 27 -11 27
-15 0 -5 14 -11 30 -15 17 -4 30 -10 30 -14 0 -15 103 -31 194 -31 89 0 144
11 175 34 29 22 127 123 151 156 36 48 49 60 68 60 18 0 195 -174 186 -183 -4
-3 3 -3 15 0 12 3 21 1 21 -6 0 -6 18 -14 40 -17 22 -4 40 -10 40 -15 0 -12
107 -12 114 0 3 5 26 12 51 15 25 4 45 11 45 15 0 5 14 11 30 15 17 3 40 15
52 25 11 11 25 18 30 15 4 -3 8 0 8 6 0 8 10 10 28 6 21 -5 24 -4 12 4 -10 8
-11 13 -3 16 6 3 22 14 34 25 13 11 31 18 40 16 12 -3 16 0 12 9 -3 8 0 14 5
14 6 0 17 6 24 13 21 20 163 107 176 107 7 0 12 4 12 9 0 5 12 12 27 16 15 3
31 12 35 18 3 6 31 11 60 11 l54 1 87 -86 c47 -48 83 -90 79 -94 -4 -5 -2 -5
5 -1 7 4 38 -11 71 -34 33 -22 67 -40 76 -40 10 0 14 -4 11 -10 -4 -6 20 -10
65 -10 45 0 69 4 65 10 -3 6 3 10 14 10 20 0 76 26 99 48 7 6 17 12 22 12 5 0
28 18 52 40 24 22 46 40 49 40 4 0 20 12 36 28 17 15 48 36 69 47 21 11 41 23
42 28 5 10 132 9 132 -2 0 -5 16 -12 36 -15 25 -5 34 -11 30 -21 -3 -9 0 -12
9 -9 13 6 74 -22 86 -39 3 -5 8 -8 10 -8 12 2 49 -13 49 -19 0 -5 23 -11 50
-15 28 -4 48 -11 45 -15 -3 -5 31 -12 75 -16 44 -3 80 -11 80 -15 0 -5 41 -9
90 -9 50 0 90 4 90 9 0 4 28 11 62 15 34 3 65 11 69 17 3 6 24 12 47 12 28 2
37 5 31 13 -6 8 -2 14 13 19 13 4 26 7 31 6 4 -1 7 2 7 7 0 4 20 16 45 27 25
11 45 23 45 28 0 4 16 7 36 7 28 0 57 -13 119 -55 45 -30 87 -55 93 -55 7 0
12 -4 12 -9 0 -5 14 -12 30 -16 17 -4 30 -10 30 -15 0 -4 18 -11 40 -15 22 -4
42 -11 46 -16 7 -12 201 -12 208 0 4 5 24 12 46 16 22 4 40 11 40 15 0 5 14
11 30 15 17 4 30 10 30 15 0 5 15 12 33 15 17 4 35 11 38 16 3 5 33 12 67 15
34 4 59 11 56 15 -3 5 28 9 68 9 41 0 78 4 84 9 5 5 72 11 149 12 l140 3 3 42
c5 71 -5 74 -176 67 -81 -3 -149 -9 -152 -13 -3 -4 -48 -10 -100 -14 -52 -4
-96 -11 -98 -16 -2 -6 -17 -10 -32 -10 -16 0 -31 -4 -35 -10 -3 -5 -12 -7 -20
-3 -8 3 -15 0 -15 -7 0 -8 -9 -11 -24 -8 -17 4 -23 1 -19 -9 3 -8 -5 -15 -26
-19 -17 -4 -31 -10 -31 -15 0 -4 -16 -11 -35 -15 -19 -3 -35 -10 -35 -15 0 -5
-40 -9 -90 -9 -49 0 -90 4 -90 9 0 5 -18 11 -40 15 -22 3 -40 10 -40 15 0 5
-13 12 -30 16 -16 4 -30 11 -30 16 0 5 -7 9 -15 9 -8 0 -15 5 -15 11 0 5 -5 7
-12 3 -8 -5 -9 -2 -5 9 3 9 1 19 -5 23 -7 4 -8 3 -4 -4 4 -7 2 -12 -4 -12 -10
0 -21 8 -55 38 -8 7 -28 15 -44 18 -17 4 -31 10 -31 15 0 5 -20 9 -45 9 -25 0
-45 -4 -45 -9 0 -5 -13 -12 -30 -16 -16 -4 -30 -10 -30 -15 0 -5 -13 -11 -30
-15 -16 -4 -30 -10 -30 -15 0 -6 -36 -21 -49 -19 -2 0 -7 -3 -10 -8 -10 -15
-78 -43 -104 -43 -14 0 -27 -6 -29 -12 -6 -16 -266 -17 -276 -1 -4 5 -29 13
-57 17 -27 3 -54 11 -59 16 -6 6 -20 10 -33 10 -13 0 -23 4 -23 9 0 5 -13 12
-30 16 -16 4 -30 10 -30 15 0 5 -13 11 -30 15 -16 4 -30 10 -30 15 0 4 -12 11
-27 15 -15 3 -31 12 -35 18 -9 15 -235 17 -246 2 -7 -11 -99 -75 -107 -75 -2
0 -2 8 1 18 5 14 4 14 -4 2 -6 -8 -9 -17 -7 -21 5 -7 -107 -99 -141 -117 -12
-6 -25 -8 -29 -4 -5 4 -5 1 -1 -5 5 -9 -5 -15 -33 -19 -23 -4 -38 -10 -35 -15
3 -5 -11 -9 -30 -9 -20 0 -36 5 -36 10 0 6 -9 10 -19 10 -11 0 -26 7 -35 15
-8 8 -19 15 -23 15 -13 0 -66 45 -148 125 -40 39 -84 76 -99 83 -32 14 -138
14 -183 0z"/>
</g>
</svg>
